<?xml version="1.0" encoding="utf-8"?>
<!-- Generator: Adobe Illustrator 15.0.1, SVG Export Plug-In  -->
<!DOCTYPE svg PUBLIC "-//W3C//DTD SVG 1.1//EN" "http://www.w3.org/Graphics/SVG/1.1/DTD/svg11.dtd" [
	<!ENTITY ns_flows "http://ns.adobe.com/Flows/1.0/">
]>
<svg version="1.1"
	 xmlns="http://www.w3.org/2000/svg" xmlns:xlink="http://www.w3.org/1999/xlink" xmlns:a="http://ns.adobe.com/AdobeSVGViewerExtensions/3.0/"
	 x="0px" y="0px" width="363px" height="264px" viewBox="-1 -1.3335 363 264" enable-background="new -1 -1.3335 363 264"
	 xml:space="preserve">
<defs>
</defs>
<path fill="#00111D" stroke="#FFFFFF" stroke-miterlimit="10" d="M152.019,180.2363c-1.1738-4.731-1.9473-8.1216-2.3193-10.1714
	c-0.3354,1.9004-0.9971,5.0039-1.9839,9.3633c-0.9878,4.3594-3.1768,12.7383-6.5669,25.7383h17.3809l-3.521-13.3867
	C154.189,188.7993,153.1929,184.9683,152.019,180.2363z"/>
<path fill="#00111D" stroke="#FFFFFF" stroke-miterlimit="10" d="M114.376,137.3003c7.3682,0,11.0527-5.0391,11.0527-15.1182
	c0-9.9736-3.7104-14.9609-11.1318-14.9609c-3.8945,0-6.7173,1.29-8.4668,3.8687c-1.7505,2.5791-2.625,6.2764-2.625,11.0923
	C103.2051,132.2612,106.9282,137.3003,114.376,137.3003z"/>
<path fill="#00111D" stroke="#FFFFFF" stroke-miterlimit="10" d="M328.5,55.1665h-35.083
	c-8.2109,6.8462-18.7725,10.9688-30.2998,10.9688c-11.5264,0-22.0879-4.1226-30.2988-10.9688H118.4175
	c-8.2114,6.8462-18.7729,10.9688-30.2998,10.9688s-22.0884-4.1226-30.2998-10.9688H31.5c-6.6274,0-12,5.3726-12,12v184
	c0,6.6274,5.3726,12,12,12h297c6.627,0,12-5.3726,12-12v-184C340.5,60.5391,335.127,55.1665,328.5,55.1665z M145.5,100.1665h7.4028
	l1.2236,8h0.4736c1.4468-3,3.3354-4.6895,5.6646-6.2163c2.3286-1.5259,4.8354-2.2983,7.5195-2.2983
	c1.8682,0,3.4077,0.127,4.6187,0.3896l-0.9082,8.6426c-1.3159-0.3154-2.6841-0.4751-4.105-0.4751
	c-3.7109,0-6.9248,1.2104-9.2275,3.6313c-2.3027,2.4214-3.6621,5.5654-3.6621,9.4336v22.8926h-9V100.1665z M99.0996,105.603
	c3.6318-3.9736,8.7495-5.9604,15.3555-5.9604c6.3159,0,11.3154,2.0327,15,6.0986c3.6841,4.0654,5.5264,9.5464,5.5264,16.4409
	c0,7.1313-1.8296,12.6973-5.4868,16.6973c-3.6582,4.0005-8.7505,6-15.2764,6c-4.0796,0-7.6846-0.9209-10.8159-2.7632
	c-3.1318-1.8418-5.54-4.4863-7.2236-7.9341c-1.6846-3.4473-2.5264-7.4473-2.5264-12
	C93.6523,115.103,95.4683,109.5767,99.0996,105.603z M54.5,86.1665h32v8h-23v18h22v8h-22v24h-9V86.1665z M72.1011,182.9751
	c1.6572,1.2671,6.1563,3.5767,13.4966,6.9297c7.0415,3.1675,11.9316,6.5669,14.6704,10.1992
	c2.7383,3.6328,4.1074,8.207,4.1074,13.7202c0,5.0674-1.2852,9.5664-3.856,13.4971c-2.5708,3.9312-6.2788,6.9858-11.1216,9.165
	c-4.8438,2.1797-10.5259,3.2695-17.0454,3.2695c-5.4404,0-9.8276-0.3823-13.5161-1.1455S51.5,236.5146,47.5,234.6143v-19.6719
	c4,2.1611,8.4111,3.8472,12.957,5.0576c4.5454,1.2109,8.6299,1.8164,12.4307,1.8164c3.2783,0,5.6372-0.5679,7.165-1.7046
	c1.5273-1.1362,2.2695-2.5986,2.2695-4.3872c0-1.1177-0.3179-2.0957-0.9326-2.9341s-1.6084-1.6855-2.9683-2.543
	c-1.3604-0.8564-4.9858-2.6074-10.8721-5.2534c-5.3286-2.4214-9.3262-4.7686-11.9893-7.0415
	c-2.6646-2.2725-4.6396-4.8804-5.9253-7.8242c-1.2852-2.9429-1.9277-6.4268-1.9277-10.4507c0-7.5259,2.7378-13.3936,8.2148-17.6045
	c5.4766-4.21,13.0024-6.3154,22.5781-6.3154c8.457,0,17.082,1.9561,25.8755,5.8682l-6.7622,17.0454
	c-7.6382-3.5015-14.2329-5.2529-19.7837-5.2529c-2.8696,0-4.9556,0.5029-6.2598,1.5088s-1.9561,2.2544-1.9561,3.7441
	C69.6138,180.2739,70.4429,181.7085,72.1011,182.9751z M167.1362,238.1665l-4.0234-15h-26.5464l-4.1357,15h-24.2549l26.6582-82
	h29.4521l26.9932,82H167.1362z M253.5,238.1665h-53v-81h22v64h31V238.1665z M315.5,174.1665h-27v13h25v18h-25v15h27v18h-49v-81h49
	V174.1665z"/>
<path fill="#00111D" d="M350,11.6665h-64.8252C280.5947,4.645,272.6758,0,263.667,0s-16.9277,4.645-21.5078,11.6665H109.1748
	C104.5947,4.645,96.6758,0,87.667,0S70.7393,4.645,66.1592,11.6665H12c-6.6274,0-12,5.3726-12,12v3c0,6.6274,5.3726,12,12,12
	h53.5386C70,46.2441,78.2373,51.333,87.667,51.333s17.667-5.0889,22.1284-12.6665h131.7427
	C246,46.2441,254.2373,51.333,263.667,51.333s17.667-5.0889,22.1289-12.6665H350c6.627,0,12-5.3726,12-12v-3
	C362,17.0391,356.627,11.6665,350,11.6665z"/>
</svg>
