<?xml version="1.0" encoding="utf-8"?>
<!-- Generator: Adobe Illustrator 15.0.1, SVG Export Plug-In  -->
<!DOCTYPE svg PUBLIC "-//W3C//DTD SVG 1.1//EN" "http://www.w3.org/Graphics/SVG/1.1/DTD/svg11.dtd" [
	<!ENTITY ns_flows "http://ns.adobe.com/Flows/1.0/">
]>
<svg version="1.1"
	 xmlns="http://www.w3.org/2000/svg" xmlns:xlink="http://www.w3.org/1999/xlink" xmlns:a="http://ns.adobe.com/AdobeSVGViewerExtensions/3.0/"
	 x="0px" y="0px" width="229px" height="156px" viewBox="-0.1528 0.0889 229 156" enable-background="new -0.1528 0.0889 229 156"
	 xml:space="preserve">
<defs>
</defs>
<path fill="#FDB717" d="M180.5239,69.2578c0,1.8877,0.8496,3.5986,2.2129,4.8369c1.3652,1.2373,3.2539,2.0039,5.3379,2.0039
	c0.6875,0,1.3516-0.0938,1.9844-0.249l0.1055,1.7021l0.1055,1.7461l-1.2227,0.2441l-1.2207,0.2432
	c-0.1484,0.0908-0.2949,0.1768-0.4355,0.2656c-1.0059,0.3506-1.9121,0.877-2.6602,1.5547c-1.3633,1.2354-2.209,2.9463-2.209,4.8389
	c0,1.8867,0.8457,3.5977,2.209,4.8359c1.3691,1.2363,3.2539,2.002,5.3398,2.002c0.1211,0,0.2402-0.0117,0.3613-0.0156l-0.1113,0.873
	l-0.1504,1.1816c-0.4375-0.0742-0.8887-0.1172-1.3496-0.1172c-2.084,0-3.9707,0.7676-5.3359,2.0039
	c-0.7383,0.6719-1.3203,1.4844-1.7031,2.3867c-0.502,0.8867-0.6211,1.7715-0.498,2.6113c0.0469,1.8242,0.877,3.4746,2.2012,4.6777
	c0.8809,0.8008,1.9824,1.3965,3.2148,1.7227l-0.3047,0.9531l-0.3555,1.1074c-1.0352-0.4844-2.209-0.7637-3.4551-0.7637
	c-2.084,0-3.9688,0.7656-5.3359,2.0039c-1.3672,1.2363-2.2109,2.9492-2.2109,4.834c0,1.8926,0.8438,3.6016,2.2109,4.8398
	c0.582,0.5273,1.2637,0.9629,2.0156,1.2969l0.1738,0.1602l-1.1133,1.5547l-0.8691,1.2109
	c-1.2754-0.8945-2.8691-1.4277-4.5996-1.4277c-2.084,0-3.9707,0.7637-5.3359,2.002c-1.3652,1.2402-2.2109,2.9492-2.2109,4.8379
	c0,1.3633,0.4434,2.627,1.1992,3.6914c0.0508,0.1621,0.084,0.2559,0.084,0.2559l0.5273,0.7285l0.5332,0.7285l-1.3281,1.2578
	l-1.0762,1.0254c-0.1641-0.1895-0.3398-0.373-0.5293-0.5391c-1.3633-1.2383-3.252-2.0039-5.3359-2.0039
	c-1.3613,0-2.6387,0.334-3.7383,0.9063c-1.4512,0.5332-2.3418,1.5352-2.8828,2.6484c-0.002,0.002-0.002,0.0078-0.0059,0.0117
	c-0.5859,0.9746-0.9199,2.0898-0.9199,3.2734c0,0.4453,0.0508,0.8789,0.1387,1.293c0.0273,0.4688,0.0703,0.7598,0.0703,0.7598
	l0.3906,0.6211c0.125,0.2617,0.2676,0.5117,0.4199,0.75l-1.9785,1l-1.3281,0.6758c-0.3828-0.873-0.9531-1.6563-1.6699-2.3047
	c-1.3672-1.2383-3.252-2.0039-5.3359-2.0039s-3.9688,0.7656-5.3359,2.0039c-1.3672,1.2363-2.2109,2.9473-2.2109,4.8359
	c0,0.916,0.2031,1.7793,0.5566,2.5742c-0.6367,0.1934-1.6523,0.4316-2.5117,0.6211c-0.3926,0.0879-0.75,0.1641-1.0313,0.2227
	c-0.2695-1.4219-1.0137-2.6953-2.0898-3.6699c-1.3691-1.2402-3.2559-2.0059-5.3379-2.0059c-2.0859,0-3.9688,0.7656-5.3359,2.0059
	c-1.3398,1.2148-2.1523,3.6465-2.1836,5.4961c-0.457-0.9551-0.3672-3.8027-0.5957-5.8359
	c-0.3145-2.7461-1.4551-6.0059-1.4551-6.0059c-0.0098,0,0.668-0.3535,0.6563-0.3535c7.1602-0.1992,11.6621-0.9473,14.375-1.6465
	c2.709-0.7012,3.6328-1.3516,3.6328-1.3516c-2.7402-0.8848-6.2969-2.7383-9.7461-4.8125c-3.4473-2.0664-6.7813-4.3535-9.0762-6.1074
	v-2.8047v-2.8008c2.9941,2.3926,4.5645,3.5137,6.3789,4.6699c1.8164,1.1484,3.8828,2.3398,7.8789,4.877
	c5.2188,3.2461,10.4238,3.2012,14.3203,2.3379c3.8984-0.8594,6.4883-2.5293,6.4883-2.5293
	c6.2656-4.0293,8.2559-8.7324,8.6797-12.4277c0.4258-3.7012-0.7129-6.3887-0.7129-6.3887
	c-2.9746-11.0098,0.6094-19.1309,5.2148-24.9375c4.6055-5.8096,10.2305-9.3008,11.3457-11.0449
	c1.1172-1.749,1.3555-3.7139,1.3145-5.2402c-0.0371-1.5244-0.3574-2.6172-0.3574-2.6172c-0.9297-4.168-2.6895-8.0576-4.623-11.3877
	c-1.9316-3.335-4.0352-6.1094-5.6426-8.0371h0.0684h0.0684h-0.0684h-0.0684c-0.1484-0.1768-0.293-0.3467-0.4336-0.5107
	c-0.1367-0.1631-0.2734-0.3193-0.4023-0.4639l1.5156-2.8955l1.2734-2.4307c1.1113,0.5801,2.3926,0.9209,3.7695,0.9209
	c1.9258,0,3.6777-0.6631,5.0137-1.7402l0.9082,1.1348l0.9785,1.2119c-0.5527,0.3008-1.0625,0.6484-1.5137,1.0537
	c-1.3633,1.2412-2.207,2.9473-2.207,4.8379s0.8438,3.5986,2.207,4.8379c1.3691,1.2363,3.2539,2,5.3379,2
	c1.1543,0,2.2441-0.2383,3.2168-0.6543c0.1855,0.3301,0.5371,1.1504,0.8594,1.9268c0.3613,0.8613,0.6777,1.6611,0.6777,1.6611
	l-0.4316,0.1836c-1.2148,0.332-2.2988,0.9258-3.1719,1.7178C181.3735,65.6582,180.5239,67.3691,180.5239,69.2578 M176.4653,86.7686
	c-11.6895,5.6563-14.4688,13.709-14.2637,20.3359c0.207,6.627,3.3926,11.8281,3.6387,11.7637l-0.0469,0.1465l-0.0488,0.1465
	c1.5469-1.9414,3.4844-5.3359,5.0371-8.2461c1.5508-2.9082,2.7109-5.334,2.7109-5.334s1.0098-2.2285,1.8848-5.6992
	C176.2524,96.415,176.9946,91.7119,176.4653,86.7686z"/>
<path fill="#FDB717" d="M114.8247,129.9365c0.0059,0.0078,0.0098,0.0117,0.0137,0.0117c0.0039,0.0059,0.0117,0.0098,0.0156,0.0137
	v0.0117v0.0195c-2.3066,1.7559-5.6875,4.0313-9.1836,6.0918c-3.498,2.0664-7.1074,3.9121-9.873,4.7969
	c0,0,1.3301,0.6523,4.4824,1.3535c3.1504,0.6992,8.1152,1.4512,15.3887,1.6445c-0.0117,0-0.0215,0-0.0332,0
	c-0.0137,0-0.0234,0-0.0352,0l0.7559,6.0977l0.6875,5.5742c0.0059,0.1797,0.0098,0.3555,0.0313,0.5293l-2.2754,0.0137
	l-1.9551,0.0176c0.127-0.502,0.2012-1.0137,0.2012-1.5488c0-1.8906-0.8477-3.5977-2.2129-4.8379
	c-1.3652-1.2363-3.248-2.002-5.334-2.002s-3.9727,0.7656-5.334,2.002c-1.3184,1.1934-2.1406,2.8203-2.2031,4.625
	c-0.2031-0.043-0.8047-0.166-1.5215-0.3242c-0.7441-0.1621-1.5938-0.3613-2.2285-0.5313c0.4336-0.8652,0.6816-1.8184,0.6816-2.834
	c0-1.8867-0.8438-3.5977-2.207-4.832c-1.3652-1.2402-3.2539-2.0078-5.3379-2.0078c-2.082,0-3.9688,0.7676-5.332,2.0078
	c-0.8203,0.7363-1.4453,1.6504-1.8203,2.6699l-1.7324-0.875l-1.4531-0.7246c1.002-1.1602,1.6074-2.6191,1.6074-4.207
	c0-1.8906-0.8457-3.5996-2.2109-4.8398c-1.3672-1.2344-3.2539-2-5.3359-2c-2.084,0-3.9727,0.7656-5.334,2
	c-0.207,0.1875-0.3945,0.3887-0.5781,0.5957l-0.0176,0.0117l-0.9102,0.6777l-1.3379-1.2598l-1.2891-1.2148
	c0.1328-0.1113,0.2676-0.2109,0.3965-0.3262c1.3633-1.2422,2.209-2.9473,2.209-4.8398c0-1.8887-0.8457-3.5977-2.209-4.8359
	c-1.3691-1.2363-3.2539-2.0059-5.3379-2.0059c-1.7148,0-3.291,0.5273-4.5586,1.4004l-0.1777,0.0859l-1.123-1.5488l-0.8848-1.2207
	c0.5371-0.2949,1.0352-0.6348,1.4766-1.0332c1.3652-1.2383,2.209-2.9512,2.209-4.8398c0-0.5234-0.0723-1.0371-0.1953-1.5273
	c0.0098-1.7754-0.8945-3.5117-3.8223-4.5156c-1.0527-0.5059-2.252-0.7969-3.5273-0.7969c-0.1816,0-0.3594,0.0137-0.541,0.0273
	c-0.2813-0.0273-0.5645-0.0449-0.8672-0.0605l-0.8027,0.0469l-0.8027,0.0508l-0.3008-0.9375l-0.3008-0.9375
	c1.5215-0.2207,2.8906-0.8535,3.959-1.7715c1.0703-0.916,1.8438-2.1191,2.168-3.4668c0.0566-0.2344,0.0977-0.4727,0.125-0.7168
	c0.0332-0.2383,0.0449-0.4863,0.0449-0.7383c0-1.1914-0.3379-2.3086-0.9316-3.2813c-0.5938-0.9707-1.4473-1.7969-2.4688-2.4043
	c-0.5898-0.3438-1.2344-0.6172-1.918-0.8066c-0.6836-0.1875-1.4121-0.2871-2.1621-0.2871c-0.0273,0-0.0488,0-0.0742,0
	c-0.0215,0-0.0449,0.0039-0.0684,0.0039c-0.0352-0.0117-0.0703-0.0254-0.1055-0.0352c-0.0352-0.0156-0.0703-0.0273-0.1074-0.0449
	l-1.0137,0.0527l-1.0176,0.0449l-0.1621-1.2578l-0.1582-1.2598l0.9922-0.1914c1.8184-0.1426,3.459-0.873,4.6777-1.9766
	c1.3672-1.2363,2.2109-2.9463,2.2109-4.832c0-1.8906-0.8438-3.6035-2.2109-4.8418c-1.3652-1.2363-3.25-2-5.334-2
	c-0.0371,0-0.0723,0-0.1074,0l0.0918-1.4863l0.1074-1.7451h0.7598c0.4531,0.0762,0.916,0.1221,1.3926,0.1221
	c2.084,0,3.9707-0.7646,5.334-2.0029c1.3672-1.2373,2.2109-2.9482,2.2109-4.8408c0-1.8828-0.8438-3.5938-2.2109-4.8359
	c-0.9961-0.9014-2.2715-1.5508-3.6992-1.8359c0.0977-0.2402,0.3535-0.874,0.6367-1.5537c0.3008-0.709,0.6191-1.4521,0.8164-1.8311
	c1.125,0.6035,2.4336,0.958,3.832,0.958c2.0859,0,3.9727-0.7666,5.3398-2.0029c1.3652-1.2363,2.2109-2.9473,2.2109-4.8418
	c0-1.8857-0.8457-3.5928-2.2109-4.833c-0.6074-0.5518-1.3242-1.002-2.1113-1.3379l1.0723-1.3252l0.7461-0.9189
	c0.0059,0.0039,0.0156,0.0127,0.0254,0.0205c0.416,0.2988,0.8711,0.5664,1.3555,0.7852c1.0137,0.4609,2.1602,0.7188,3.3672,0.7188
	c0.9883,0,1.9277-0.1729,2.793-0.4834c0.4727-0.1719,0.9199-0.3838,1.3418-0.6318c0.0078-0.0029,0.0176-0.0137,0.0273-0.0215
	l1.3965,2.6465l1.5254,2.8955c-0.1309,0.1445-0.2656,0.3008-0.4063,0.4639c-0.1387,0.1641-0.2832,0.334-0.4316,0.5107h-0.0703
	h-0.0703h0.0703h0.0703c-1.623,1.9277-3.7441,4.7021-5.6914,8.0371c-1.9473,3.3301-3.7246,7.2197-4.6563,11.3877
	c0,0-0.3242,1.0928-0.3613,2.6172c-0.041,1.5264,0.2031,3.4912,1.3242,5.2402c1.123,1.7441,6.793,5.2354,11.4355,11.0449
	c4.6387,5.8066,8.2539,13.9277,5.2539,24.9375c0,0-1.1484,2.6875-0.7188,6.3887c0.4277,3.6953,2.4336,8.3984,8.7441,12.4277
	c0,0,2.6152,1.6699,6.541,2.5293c3.9277,0.8633,9.1719,0.9082,14.4336-2.3379c4.0254-2.5371,6.1289-3.7285,7.9824-4.877
	c1.8496-1.1563,3.4551-2.2773,6.4727-4.6699l-0.0156,2.791L114.8247,129.9365 M52.6782,86.7686
	c-0.5391,4.9434,0.2109,9.6465,1.0938,13.1133c0.8828,3.4707,1.8984,5.6992,1.8984,5.6992s1.1738,2.4258,2.7344,5.334
	c1.5645,2.9102,3.5176,6.3047,5.0781,8.2461l-0.0469-0.1465l-0.0508-0.1465c0.248,0.0645,3.4609-5.1367,3.666-11.7637
	C67.2544,100.4775,64.4575,92.4248,52.6782,86.7686z"/>
<path fill="#FDB717" d="M115.2642,28.999c0.0039-0.0039,0.0078-0.0078,0.0137-0.0117c0.002-0.0039,0.0117-0.0068,0.0137-0.0127
	V28.959v-0.0166c-2.3066-1.8145-5.6875-4.1709-9.1797-6.3076c-3.498-2.1348-7.1074-4.0459-9.875-4.9658
	c0,0,1.3301-0.6738,4.4805-1.3984c3.1504-0.7266,8.1172-1.502,15.3906-1.6982c-0.0137,0-0.0234-0.002-0.0352-0.002
	s-0.0215,0-0.0332,0l0.7539-6.3145l0.6895-5.7676c0.0039-0.1846,0.0078-0.3662,0.0293-0.5498l-2.2734-0.0137l-1.957-0.0146
	c0.127,0.5166,0.2051,1.0488,0.2051,1.6006c0,1.9561-0.8516,3.7246-2.2148,5.0068c-1.3652,1.2773-3.25,2.0703-5.334,2.0703
	c-2.0859,0-3.9746-0.793-5.3379-2.0703c-1.3145-1.2354-2.1387-2.9189-2.1992-4.7861c-0.2051,0.043-0.8066,0.1729-1.5234,0.3359
	c-0.7441,0.167-1.5918,0.3701-2.2266,0.5508c0.4336,0.8926,0.6816,1.8809,0.6816,2.9316c0,1.9521-0.8438,3.7246-2.207,5.0029
	c-1.3672,1.2813-3.2539,2.0762-5.3379,2.0762s-3.9707-0.7949-5.3359-2.0762c-0.8164-0.7666-1.4414-1.7061-1.8184-2.7607
	l-1.7324,0.9014l-1.4512,0.752c1.002,1.2002,1.6074,2.707,1.6074,4.3516c0,1.957-0.8477,3.7275-2.2109,5.0078
	c-1.3672,1.2803-3.2539,2.0723-5.3359,2.0723c-2.0859,0-3.9707-0.792-5.3359-2.0723c-0.2051-0.1914-0.3945-0.3984-0.5742-0.6143
	l-0.0195-0.0127l-0.9102-0.7021l-1.3379,1.3037l-1.291,1.2607c0.1348,0.1104,0.2676,0.2197,0.3965,0.3379
	c1.3633,1.2822,2.2109,3.0527,2.2109,5.0059c0,1.9561-0.8477,3.7256-2.2109,5.0059c-1.3672,1.2832-3.252,2.0752-5.3359,2.0752
	c-1.7168,0-3.291-0.543-4.5605-1.4482l-0.1777-0.0908l-1.123,1.6074l-0.8828,1.2637c0.5371,0.3018,1.0352,0.6582,1.4746,1.0693
	c1.3652,1.2803,2.2109,3.0527,2.2109,5.0068c0,0.543-0.0723,1.0732-0.1973,1.5811c0.0098,1.8389-0.8926,3.6367-3.8223,4.6768
	c-1.0527,0.5225-2.252,0.8213-3.5273,0.8213c-0.1797,0-0.3574-0.0127-0.541-0.0254c-0.2793,0.0244-0.5645,0.0449-0.8672,0.0615
	l-0.8027-0.0488l-0.8008-0.0488l-0.3008,0.9688l-0.3008,0.9688c1.5215,0.2266,2.8906,0.8828,3.9609,1.833
	c1.0664,0.9502,1.8418,2.1924,2.1641,3.5918c0.0586,0.2383,0.0977,0.4883,0.127,0.7393c0.0313,0.249,0.043,0.5039,0.043,0.7607
	c0,1.2324-0.3359,2.3926-0.9297,3.3984s-1.4453,1.8613-2.4707,2.4883c-0.5879,0.3584-1.2324,0.6406-1.916,0.8379
	c-0.6836,0.1914-1.4121,0.2969-2.1621,0.2969c-0.0273,0-0.0508,0-0.0742-0.002c-0.0234,0-0.0449-0.0059-0.0703-0.0059
	c-0.0332,0.0127-0.0684,0.0273-0.1055,0.043c-0.0352,0.0127-0.0703,0.0273-0.1074,0.04l-1.0117-0.0498L39.311,64.75l-0.1602,1.3066
	l-0.1602,1.3027l0.9941,0.1963c1.8184,0.1475,3.459,0.8965,4.6797,2.0439c1.3652,1.2783,2.209,3.0518,2.209,5.0039
	c0,1.9541-0.8438,3.7266-2.209,5.0078c-1.3691,1.2822-3.2539,2.0732-5.3379,2.0732c-0.0371,0-0.0723-0.0029-0.1074-0.0029
	l0.0918,1.5371l0.1094,1.8066h0.7598c0.4512-0.0762,0.916-0.124,1.3926-0.124c2.084,0,3.9707,0.791,5.334,2.0732
	c1.3672,1.2813,2.2109,3.0508,2.2109,5.0078c0,1.9541-0.8438,3.7236-2.2109,5.0059c-0.9961,0.9326-2.2734,1.6064-3.6992,1.9004
	c0.0957,0.25,0.3535,0.9082,0.6367,1.6104c0.3008,0.7334,0.6191,1.502,0.8164,1.8936c1.123-0.627,2.4316-0.9922,3.832-0.9922
	c2.0859,0,3.9727,0.7949,5.3379,2.0752c1.3672,1.2813,2.2109,3.0527,2.2109,5.0068c0,1.9551-0.8438,3.7236-2.2109,5.0068
	c-0.6074,0.5674-1.3223,1.0371-2.1094,1.3857l1.0703,1.3701l0.7461,0.9521c0.0078-0.0059,0.0176-0.0127,0.0254-0.0186
	c0.418-0.3145,0.873-0.5889,1.3555-0.8145c1.0156-0.4785,2.1602-0.7451,3.3691-0.7451c0.9863,0,1.9277,0.1797,2.791,0.501
	c0.4727,0.1797,0.9219,0.3955,1.3438,0.6514c0.0078,0.0098,0.0156,0.0156,0.0254,0.0225l1.3965-2.7402l1.5254-2.9971
	c-0.1309-0.1514-0.2656-0.3086-0.4043-0.4805c-0.1406-0.167-0.2832-0.3447-0.4336-0.5244h-0.0684h-0.0723h0.0723h0.0684
	c-1.623-1.999-3.7441-4.8691-5.6895-8.3184c-1.9492-3.4492-3.7266-7.4756-4.6563-11.7891c0,0-0.3242-1.127-0.3633-2.7109
	c-0.0391-1.5791,0.2031-3.6113,1.3262-5.417c1.123-1.8076,6.791-5.4199,11.4336-11.4346c4.6406-6.0107,8.2539-14.415,5.2559-25.8125
	c0,0-1.1484-2.7813-0.7188-6.6094c0.4277-3.8281,2.4316-8.6963,8.7461-12.8643c0,0,2.6113-1.7314,6.5371-2.6211
	c3.9297-0.8906,9.1719-0.9414,14.4336,2.4219c4.0273,2.6221,6.1309,3.8545,7.9844,5.0488c1.8496,1.1973,3.4531,2.3545,6.4707,4.8301
	l-0.0137-2.8896L115.2642,28.999 M53.1157,73.6865c-0.5371-5.1221,0.2129-9.9902,1.0957-13.5791
	c0.8828-3.5898,1.8984-5.8984,1.8984-5.8984s1.1719-2.5088,2.7344-5.5205c1.5645-3.0137,3.5156-6.5244,5.0781-8.5322l-0.0488,0.1494
	l-0.0508,0.1504c0.248-0.0615,3.4609,5.3164,3.666,12.1768C67.6958,59.4912,64.897,67.8301,53.1157,73.6865z"/>
<path fill="#FDB717" d="M180.9653,91.8047c0-1.9531,0.8457-3.7197,2.2109-5.0039c1.3652-1.2813,3.252-2.0742,5.3379-2.0742
	c0.6855,0,1.3496,0.0947,1.9844,0.2559l0.1035-1.7637l0.1074-1.8057l-1.2227-0.25l-1.2207-0.252
	c-0.1504-0.0947-0.2949-0.1865-0.4355-0.2754c-1.0078-0.3633-1.9121-0.9082-2.6602-1.6094c-1.3652-1.2803-2.209-3.0518-2.209-5.0088
	c0-1.9521,0.8438-3.7236,2.209-5.0039c1.3672-1.2803,3.252-2.0742,5.3379-2.0742c0.1211,0,0.2422,0.0137,0.3633,0.0176
	l-0.1133-0.9004l-0.1484-1.2256c-0.4395,0.0723-0.8867,0.1172-1.3496,0.1172c-2.084,0-3.9707-0.791-5.3379-2.0713
	c-0.7383-0.6963-1.3203-1.5381-1.7031-2.4707c-0.502-0.9199-0.6211-1.833-0.498-2.7031c0.0488-1.8867,0.877-3.5967,2.2012-4.8389
	c0.8809-0.8291,1.9844-1.4473,3.2148-1.7861l-0.3047-0.9834l-0.3555-1.1494c-1.0352,0.502-2.207,0.79-3.4551,0.79
	c-2.082,0-3.9688-0.791-5.3359-2.0732c-1.3652-1.2803-2.209-3.0518-2.209-5.0059s0.8438-3.7246,2.209-5.0078
	c0.584-0.5459,1.2656-0.9951,2.0156-1.3398l0.1758-0.1699l-1.1133-1.6055l-0.8711-1.2529
	c-1.2734,0.9219-2.8652,1.4766-4.5996,1.4766c-2.084,0-3.9688-0.791-5.3359-2.0742c-1.3652-1.2813-2.2109-3.0508-2.2109-5.0049
	c0-1.4092,0.4434-2.7188,1.2012-3.8223c0.0488-0.168,0.084-0.2646,0.084-0.2646l0.5273-0.75l0.5332-0.7559l-1.3281-1.3057
	l-1.0762-1.0596c-0.166,0.1963-0.3418,0.3818-0.5293,0.5576c-1.3633,1.2822-3.252,2.0752-5.3359,2.0752
	c-1.3633,0-2.6387-0.3457-3.7402-0.9385c-1.4492-0.5537-2.3398-1.5869-2.8828-2.7422c-0.002-0.002-0.002-0.0088-0.0039-0.0137
	c-0.5879-1.0059-0.9219-2.1592-0.9219-3.3877c0-0.458,0.0527-0.9043,0.1426-1.3369c0.0254-0.4844,0.0684-0.7832,0.0684-0.7832
	l0.3887-0.6465c0.125-0.2695,0.2695-0.5264,0.4219-0.7773l-1.9785-1.0332l-1.3281-0.6973
	c-0.3828,0.8994-0.9551,1.7109-1.6699,2.3838c-1.3652,1.2813-3.252,2.0723-5.3359,2.0723s-3.9707-0.791-5.3359-2.0723
	c-1.3672-1.2832-2.2129-3.0527-2.2129-5.0068c0-0.9443,0.2031-1.8398,0.5586-2.6641c-0.6387-0.1992-1.6543-0.4443-2.5137-0.6416
	c-0.3906-0.0898-0.748-0.168-1.0313-0.2305c-0.2695,1.4678-1.0137,2.7871-2.0898,3.7998c-1.3672,1.2813-3.252,2.0752-5.3359,2.0752
	c-2.0859,0-3.9707-0.7939-5.3359-2.0752c-1.3418-1.2578-2.1543-3.7764-2.1836-5.6885c-0.457,0.9863-0.3672,3.9326-0.5977,6.0381
	c-0.3125,2.8398-1.4531,6.2178-1.4531,6.2178c-0.0117,0,0.666,0.3662,0.6563,0.3682c7.1582,0.2061,11.6621,0.9785,14.373,1.7002
	c2.7109,0.7266,3.6328,1.3965,3.6328,1.3965c-2.7402,0.917-6.2969,2.8379-9.7461,4.9824c-3.4473,2.1406-6.7793,4.5088-9.0762,6.3232
	v2.9023v2.8984c2.9941-2.4756,4.5664-3.6328,6.3789-4.8301c1.8164-1.1943,3.8848-2.4268,7.8789-5.0488
	c5.2188-3.3633,10.4258-3.3125,14.3203-2.4219c3.9004,0.8896,6.4902,2.6211,6.4902,2.6211
	c6.2637,4.168,8.2559,9.0361,8.6777,12.8643c0.4258,3.8281-0.7129,6.6094-0.7129,6.6094
	c-2.9746,11.3975,0.6113,19.8018,5.2168,25.8125c4.6035,6.0146,10.2305,9.627,11.3438,11.4346
	c1.1172,1.8057,1.3555,3.8379,1.3164,5.417c-0.0391,1.584-0.3574,2.7109-0.3574,2.7109c-0.9297,4.3135-2.6914,8.3398-4.6211,11.7891
	c-1.9355,3.4492-4.0371,6.3193-5.6465,8.3184h0.0684h0.0684h-0.0684h-0.0684c-0.1484,0.1797-0.291,0.3574-0.4336,0.5244
	c-0.1367,0.1719-0.2715,0.3291-0.4004,0.4805l1.5156,2.9971l1.2734,2.5156c1.1113-0.6006,2.3926-0.9502,3.7676-0.9502
	c1.9258,0,3.6797,0.6865,5.0137,1.8018l0.9102-1.1758l0.9785-1.2568c-0.5527-0.3066-1.0625-0.666-1.5117-1.0898
	c-1.3652-1.2822-2.2109-3.0498-2.2109-5.0059c0-1.957,0.8457-3.7246,2.2109-5.0068c1.3672-1.2832,3.25-2.0742,5.334-2.0742
	c1.1563,0,2.2441,0.2461,3.2207,0.6816c0.1816-0.3428,0.5332-1.1914,0.8555-1.9941c0.3613-0.8896,0.6797-1.7188,0.6797-1.7188
	l-0.4316-0.1924c-1.2148-0.3447-2.3008-0.958-3.1719-1.7744C181.811,95.5322,180.9653,93.7637,180.9653,91.8047 M176.9048,73.6865
	c-11.6895-5.8564-14.4688-14.1953-14.2656-21.0537c0.207-6.8604,3.3926-12.2383,3.6406-12.1768l-0.0488-0.1504l-0.0469-0.1494
	c1.5449,2.0078,3.4824,5.5186,5.0352,8.5322c1.5508,3.0117,2.7129,5.5205,2.7129,5.5205s1.0078,2.3086,1.8828,5.8984
	C176.6919,63.6963,177.4341,68.5645,176.9048,73.6865z"/>
<path fill="#0A151F" d="M188.0259,64.4414c0,1.9912,0.9336,3.793,2.4355,5.0986c1.5039,1.3066,3.582,2.1152,5.8789,2.1152
	c0.7578,0,1.4863-0.0967,2.1855-0.2646l0.1172,1.7988l0.1172,1.8408l-1.3457,0.2549l-1.3457,0.2588
	c-0.1641,0.0928-0.3262,0.1875-0.4785,0.2803c-1.1113,0.3691-2.1074,0.9268-2.9316,1.6377
	c-1.5039,1.3076-2.4316,3.1104-2.4316,5.1055c0,1.9902,0.9277,3.793,2.4316,5.1006c1.5059,1.3057,3.584,2.1123,5.8789,2.1123
	c0.1348,0,0.2656-0.0137,0.4004-0.0176l-0.123,0.9199l-0.1641,1.248c-0.4844-0.0781-0.9785-0.123-1.4883-0.123
	c-2.2949,0-4.3711,0.8086-5.877,2.1133c-0.8125,0.709-1.4531,1.5684-1.875,2.5176c-0.5547,0.9355-0.6836,1.8711-0.5488,2.7559
	c0.0527,1.9238,0.9648,3.6641,2.4238,4.9336c0.9688,0.8438,2.1855,1.4727,3.541,1.8164l-0.3359,1.0039l-0.3906,1.1699
	c-1.1426-0.5098-2.4336-0.8066-3.8066-0.8066c-2.2949,0-4.3711,0.8086-5.877,2.1152c-1.5039,1.3047-2.4336,3.1074-2.4336,5.1016
	c0,1.9922,0.9297,3.7969,2.4336,5.1016c0.6445,0.5605,1.3926,1.0176,2.2188,1.3691l0.1934,0.1699l-1.2246,1.6387l-0.957,1.2754
	c-1.4043-0.9414-3.1602-1.5059-5.0703-1.5059c-2.293,0-4.3691,0.8086-5.875,2.1152c-1.5039,1.3066-2.4355,3.1074-2.4355,5.0996
	c0,1.4375,0.4883,2.7734,1.3242,3.8965c0.0547,0.1699,0.0918,0.2656,0.0918,0.2656l0.582,0.7695l0.5859,0.7676l-1.4609,1.332
	l-1.1875,1.0781c-0.1816-0.1992-0.375-0.3867-0.5801-0.5664c-1.502-1.3066-3.584-2.1133-5.8789-2.1133
	c-1.5,0-2.9043,0.3477-4.1191,0.9551c-1.5957,0.5645-2.5762,1.6191-3.1738,2.7949c0,0.002,0,0.0059-0.0039,0.0098
	c-0.6484,1.0293-1.0137,2.2031-1.0137,3.457c0,0.4629,0.0547,0.9199,0.1543,1.3613c0.0273,0.4941,0.0762,0.7969,0.0762,0.7969
	l0.4277,0.6602c0.1367,0.2754,0.2969,0.5371,0.4668,0.791l-2.1816,1.0547l-1.4648,0.7109
	c-0.4219-0.9199-1.0488-1.7402-1.8379-2.4297c-1.5039-1.3047-3.5781-2.1113-5.877-2.1113c-2.291,0-4.3691,0.8066-5.875,2.1113
	c-1.5059,1.3066-2.4375,3.1113-2.4375,5.1016c0,0.9629,0.2227,1.877,0.6133,2.7148c-0.7012,0.2031-1.8184,0.4551-2.7656,0.6563
	c-0.4336,0.0898-0.8262,0.1699-1.1367,0.2324c-0.2969-1.498-1.1172-2.8418-2.3008-3.8711c-1.5059-1.3066-3.582-2.1133-5.8789-2.1133
	s-4.3711,0.8066-5.877,2.1133c-1.4746,1.2813-2.3691,3.8477-2.4043,5.7969c-0.502-1.0078-0.8486-3.8818-1.0986-6.0264
	c-0.3457-2.8926-1.1572-6.4639-1.1572-6.4639c-0.0156,0,0.7324-0.373,0.7227-0.373c7.8828-0.2129,12.8398-0.998,15.8281-1.7363
	c2.9863-0.7363,4.002-1.4238,4.002-1.4238c-3.0176-0.9355-6.9355-2.8887-10.7344-5.0742
	c-3.7949-2.1836-7.4668-4.5957-10.4121-6.7803v-0.2051l0.416-2.4189v-2.9512c3.3008,2.5215,5.0293,3.7012,7.0273,4.9199
	c2,1.2168,4.2754,2.4727,8.6777,5.1465c5.7461,3.4277,11.4805,3.377,15.7695,2.4668c4.2949-0.9063,7.1465-2.6719,7.1465-2.6719
	c6.9023-4.2461,9.0938-9.209,9.5605-13.1074c0.4648-3.9023-0.7891-6.7383-0.7891-6.7383
	c-3.2734-11.6152,0.6719-20.1797,5.7441-26.3047c5.0723-6.127,11.2676-9.8105,12.4961-11.6514
	c1.2324-1.8408,1.4922-3.9131,1.4473-5.5234c-0.041-1.6104-0.3926-2.7627-0.3926-2.7627c-1.0215-4.3926-2.9629-8.499-5.0898-12.0146
	c-2.1309-3.5137-4.4453-6.4395-6.2168-8.4756h0.0762h0.0742h-0.0742h-0.0762c-0.1641-0.1836-0.3223-0.3652-0.4766-0.5352
	c-0.1504-0.1729-0.3008-0.3359-0.4434-0.4902l1.6699-3.0566l1.4023-2.5625c1.2227,0.6123,2.6348,0.9678,4.1504,0.9678
	c2.123,0,4.0527-0.6973,5.5195-1.832l1.0039,1.1973l1.0781,1.2793c-0.6113,0.3145-1.1699,0.6816-1.6641,1.1113
	c-1.5059,1.3086-2.4355,3.1104-2.4355,5.1006c0,1.9932,0.9297,3.7979,2.4355,5.1045c1.502,1.3047,3.5781,2.1123,5.875,2.1123
	c1.2715,0,2.4688-0.2529,3.5449-0.6943c0.2012,0.3496,0.5879,1.2139,0.9434,2.0313c0.3984,0.9111,0.748,1.7529,0.748,1.7529
	l-0.4785,0.1953c-1.3359,0.3516-2.5313,0.9766-3.4922,1.8105C188.9595,60.6436,188.0259,62.4443,188.0259,64.4414 M183.5532,82.9082
	c-12.873,5.9678-15.9336,14.4619-15.707,21.4541c0.2285,6.9883,3.7363,12.4688,4.0078,12.4082l-0.0547,0.1563l-0.0508,0.1484
	c1.7031-2.0449,3.8379-5.623,5.5449-8.6953c1.707-3.0684,2.9863-5.625,2.9863-5.625s1.1152-2.3516,2.0801-6.0117
	C183.3228,93.085,184.1372,88.125,183.5532,82.9082z"/>
<path fill="#0A151F" d="M115.6685,128.4463c0.0059,0.0039,0.0098,0.0078,0.0176,0.0098c0.002,0.0098,0.0117,0.0117,0.0137,0.0137
	v0.0176v0.0176c-2.541,1.8477-6.2637,4.2539-10.1113,6.4258c-3.8516,2.1777-7.8262,4.125-10.875,5.0605
	c0,0,1.4648,0.6875,4.9355,1.4277c3.4727,0.7383,8.9395,1.5293,16.9512,1.7324c-0.0156,0-0.0273,0-0.041,0
	c-0.0117,0-0.0234,0-0.0332,0l0.8281,6.4375l0.7578,5.877c0.0059,0.1875,0.0117,0.373,0.0332,0.5566l-2.5059,0.0176l-2.1523,0.0137
	c0.1387-0.5254,0.2227-1.0684,0.2227-1.6309c0-1.9941-0.9316-3.7969-2.4336-5.1035c-1.5059-1.3027-3.582-2.1113-5.877-2.1113
	c-2.2969,0-4.375,0.8086-5.877,2.1113c-1.4492,1.2578-2.3555,2.9746-2.4258,4.875c-0.2227-0.043-0.8867-0.1738-1.6738-0.3379
	c-0.8223-0.1719-1.7539-0.3789-2.4531-0.5645c0.4766-0.9082,0.75-1.918,0.75-2.9863c0-1.9883-0.9297-3.793-2.4336-5.0996
	c-1.502-1.3066-3.584-2.1152-5.8789-2.1152c-2.293,0-4.3711,0.8086-5.873,2.1152c-0.9023,0.7793-1.5879,1.7441-2.0039,2.8125
	l-1.9063-0.916l-1.5996-0.7656c1.1035-1.2266,1.7695-2.7617,1.7695-4.4375c0-1.9922-0.9336-3.7949-2.4355-5.1016
	c-1.5059-1.3066-3.584-2.1133-5.877-2.1133c-2.2949,0-4.373,0.8066-5.875,2.1133c-0.2285,0.1953-0.4355,0.4043-0.6348,0.625
	l-0.0195,0.0137l-1.0039,0.7148l-1.4707-1.3281l-1.4219-1.2832c0.1465-0.1133,0.2949-0.2227,0.4375-0.3438
	c1.5-1.3086,2.4336-3.1133,2.4336-5.1035s-0.9336-3.7949-2.4336-5.1055c-1.5078-1.3047-3.584-2.1133-5.8809-2.1133
	c-1.8887,0-3.623,0.5547-5.0176,1.4785l-0.1973,0.0918l-1.2363-1.6367l-0.9746-1.2891c0.5918-0.3086,1.1387-0.6719,1.625-1.0898
	c1.5059-1.3047,2.4336-3.1113,2.4336-5.1035c0-0.5527-0.0781-1.0938-0.2148-1.6094c0.0117-1.875-0.9863-3.707-4.2109-4.7676
	c-1.1582-0.5293-2.4785-0.8359-3.8828-0.8359c-0.2031,0-0.3965,0.0137-0.5957,0.0273c-0.3105-0.0273-0.625-0.0488-0.957-0.0664
	l-0.8848,0.0527l-0.8789,0.0508l-0.334-0.9863l-0.3301-0.9883c1.6738-0.2344,3.1836-0.9023,4.3594-1.8711
	c1.1797-0.9648,2.0293-2.2324,2.3867-3.6582c0.0645-0.2441,0.1074-0.498,0.1406-0.752c0.0332-0.2559,0.0488-0.5156,0.0488-0.7813
	c0-1.252-0.373-2.4355-1.0273-3.4609s-1.5938-1.8965-2.7207-2.5352c-0.6484-0.3633-1.3574-0.6563-2.1074-0.8535
	c-0.7559-0.1973-1.5586-0.3027-2.3848-0.3027c-0.0293,0-0.0566,0.002-0.082,0.002c-0.0215,0.002-0.0508,0.0059-0.0762,0.0059
	c-0.0391-0.0137-0.0762-0.0293-0.1172-0.043c-0.0371-0.0117-0.0742-0.0273-0.1152-0.041l-1.1191,0.0508l-1.1191,0.0508
	l-0.1758-1.3301l-0.1758-1.3301l1.0918-0.2012c2.0039-0.1484,3.8105-0.9131,5.1523-2.0781
	c1.5039-1.3086,2.4355-3.1104,2.4355-5.1016c0-1.9922-0.9316-3.7979-2.4355-5.1035c-1.5039-1.3076-3.5801-2.1094-5.875-2.1094
	c-0.0391,0-0.0801,0-0.1191,0l0.1016-1.5693l0.1191-1.8418h0.8379c0.4961,0.0781,1.0078,0.1279,1.5332,0.1279
	c2.293,0,4.375-0.8066,5.8711-2.1113c1.5078-1.3086,2.4375-3.1113,2.4375-5.1074c0-1.9893-0.9297-3.792-2.4375-5.0986
	c-1.0918-0.9512-2.5-1.6377-4.0742-1.9365c0.1094-0.2568,0.3906-0.9258,0.7051-1.6436c0.3301-0.7441,0.6797-1.5293,0.8984-1.9287
	c1.2383,0.6348,2.6777,1.0117,4.2207,1.0117c2.2949,0,4.375-0.8115,5.8789-2.1152c1.5039-1.3066,2.4375-3.1084,2.4375-5.1025
	c0-1.9922-0.9336-3.7949-2.4375-5.0996c-0.668-0.583-1.459-1.0576-2.3242-1.415l1.1816-1.3955l0.8203-0.9717
	c0.0059,0.0078,0.0195,0.0137,0.0254,0.0205c0.4629,0.3193,0.9609,0.5996,1.4961,0.832c1.1172,0.4834,2.377,0.7539,3.707,0.7539
	c1.0879,0,2.125-0.1787,3.0762-0.5068c0.5176-0.1826,1.0137-0.4053,1.4785-0.6689c0.0078-0.0039,0.0195-0.0117,0.0293-0.0205
	l1.5391,2.791l1.6797,3.0566c-0.1445,0.1543-0.293,0.3174-0.4453,0.4902c-0.1563,0.1699-0.3145,0.3516-0.4785,0.5352h-0.0762
	h-0.0781h0.0781h0.0762c-1.7852,2.0361-4.1211,4.9619-6.2656,8.4756c-2.1445,3.5156-4.1035,7.6221-5.1309,12.0146
	c0,0-0.3535,1.1523-0.3984,2.7627s0.2227,3.6826,1.4609,5.5234s7.4805,5.5244,12.5918,11.6514
	c5.1113,6.125,9.0918,14.6895,5.7871,26.3047c0,0-1.2637,2.8359-0.793,6.7383c0.4727,3.8984,2.6816,8.8613,9.6328,13.1074
	c0,0,2.8789,1.7656,7.2051,2.6719c4.3242,0.9102,10.0996,0.9609,15.8926-2.4668c4.4336-2.6738,6.752-3.9297,8.7949-5.1465
	c2.0352-1.2188,3.8027-2.3984,7.125-4.9199l-0.0137,2.9453L115.6685,128.4463 M47.2231,82.9082
	c-0.5898,5.2168,0.2344,10.1768,1.207,13.835c0.9746,3.6602,2.0918,6.0117,2.0918,6.0117s1.291,2.5566,3.0117,5.625
	c1.7207,3.0723,3.873,6.6504,5.5918,8.6953l-0.0508-0.1484l-0.0566-0.1563c0.2734,0.0605,3.8125-5.4199,4.0371-12.4082
	C63.2798,97.3701,60.1997,88.876,47.2231,82.9082z"/>
<path fill="#0A151F" d="M113.6294,25.8232c0.0078-0.0049,0.0117-0.0107,0.0176-0.0127c0.002-0.0039,0.0117-0.0068,0.0137-0.0107
	v-0.0156v-0.0156c-2.541-1.7305-6.2637-3.9785-10.1113-6.0137c-3.8535-2.0361-7.8281-3.8564-10.873-4.7334
	c0,0,1.4648-0.6416,4.9355-1.333c3.4707-0.6904,8.9375-1.4307,16.9492-1.6201c-0.0137,0-0.0273,0-0.0371,0
	c-0.0137,0-0.0254,0-0.0391,0l0.832-6.0225l0.7578-5.4951c0.0039-0.1758,0.0098-0.3506,0.0332-0.5254l-2.5039-0.0127L111.4478,0
	c0.1406,0.4902,0.2227,0.999,0.2227,1.5254c0,1.8633-0.9316,3.5508-2.4336,4.7715c-1.5059,1.2227-3.5801,1.9775-5.8789,1.9775
	c-2.2949,0-4.375-0.7549-5.875-1.9775c-1.4492-1.1738-2.3555-2.7832-2.4238-4.5615c-0.2246,0.042-0.8867,0.1641-1.6777,0.3203
	c-0.8164,0.1602-1.752,0.3516-2.4531,0.5244c0.4785,0.8516,0.752,1.7949,0.752,2.793c0,1.8652-0.9297,3.5508-2.4316,4.7725
	c-1.5059,1.2217-3.584,1.9785-5.8809,1.9785c-2.291,0-4.3691-0.7568-5.8711-1.9785c-0.9023-0.7314-1.5898-1.6279-2.0059-2.6328
	l-1.9063,0.8594l-1.5977,0.7158c1.1035,1.1465,1.7695,2.583,1.7695,4.1504c0,1.8643-0.9336,3.5508-2.4336,4.7725
	c-1.5098,1.2207-3.5859,1.9756-5.8789,1.9756c-2.2949,0-4.375-0.7549-5.875-1.9756c-0.2305-0.1836-0.4355-0.3809-0.6367-0.585
	l-0.0195-0.0127l-1.002-0.6689l-1.4727,1.2432l-1.4219,1.2012c0.1504,0.1045,0.2969,0.21,0.4375,0.3223
	c1.502,1.2227,2.4336,2.9082,2.4336,4.7725c0,1.8633-0.9316,3.5498-2.4336,4.7725c-1.5078,1.2188-3.582,1.9775-5.8809,1.9775
	c-1.8867,0-3.6211-0.5205-5.0176-1.3818l-0.1973-0.0869l-1.2383,1.5322l-0.9727,1.2051c0.5938,0.2861,1.1426,0.626,1.625,1.0215
	c1.5059,1.2178,2.4355,2.9092,2.4355,4.7695c0,0.5205-0.0801,1.0225-0.2168,1.5078c0.0117,1.7529-0.9844,3.4678-4.2109,4.457
	c-1.1602,0.499-2.4785,0.7832-3.8828,0.7832c-0.1992,0-0.3984-0.0098-0.5957-0.0215c-0.3086,0.0215-0.6211,0.041-0.9551,0.0586
	l-0.8867-0.0469l-0.8789-0.0488l-0.334,0.9248l-0.3301,0.9248c1.6738,0.2178,3.1816,0.8408,4.3613,1.7451
	c1.1758,0.9053,2.0273,2.0879,2.3848,3.4238c0.0625,0.2314,0.1094,0.4668,0.1387,0.7041c0.0352,0.2383,0.0488,0.4814,0.0488,0.7275
	c0,1.1738-0.3711,2.2793-1.0254,3.2393c-0.6543,0.957-1.5918,1.7744-2.7207,2.3711c-0.6465,0.3418-1.3555,0.6113-2.1094,0.7969
	c-0.752,0.1865-1.5586,0.2842-2.3828,0.2842c-0.0293,0-0.0547,0-0.082-0.0029c-0.0234,0-0.0488-0.001-0.0742-0.001
	c-0.041,0.0107-0.0762,0.0264-0.1172,0.0371c-0.0371,0.0146-0.0762,0.0254-0.1172,0.041l-1.1172-0.0488l-1.1211-0.0479
	l-0.1777,1.2432l-0.1738,1.2451l1.0918,0.1855c2.0039,0.1387,3.8125,0.8564,5.1523,1.9473
	c1.5059,1.2197,2.4336,2.9082,2.4336,4.7725c0,1.8623-0.9277,3.5518-2.4336,4.7744c-1.5039,1.2227-3.5801,1.9736-5.877,1.9736
	c-0.0371,0-0.0762-0.001-0.1172-0.001l0.1016,1.4668l0.1191,1.7227h0.8359c0.498-0.0742,1.0098-0.1191,1.5332-0.1191
	c2.2949,0,4.377,0.7549,5.877,1.9766c1.5039,1.2207,2.4375,2.9092,2.4375,4.7744c0,1.8604-0.9336,3.5498-2.4375,4.7695
	c-1.0957,0.8936-2.5039,1.5313-4.0762,1.8145c0.1074,0.2383,0.3926,0.8633,0.7031,1.5332c0.3301,0.6992,0.6816,1.4307,0.8984,1.8047
	c1.2383-0.5938,2.6797-0.9434,4.2188-0.9434c2.2988,0,4.377,0.7578,5.8809,1.9756c1.5039,1.2227,2.4355,2.9102,2.4355,4.7725
	c0,1.8633-0.9316,3.5498-2.4355,4.7725c-0.668,0.5439-1.457,0.9902-2.3242,1.3232l1.1816,1.3057l0.8203,0.9072
	c0.0078-0.0068,0.0176-0.0107,0.0293-0.0205c0.459-0.2969,0.9609-0.5576,1.4922-0.7734c1.1172-0.4531,2.3789-0.708,3.709-0.708
	c1.0859,0,2.123,0.168,3.0723,0.4756c0.5215,0.167,1.0176,0.3779,1.4824,0.624c0.0059,0.0039,0.0176,0.0098,0.0273,0.0186
	l1.5391-2.6113l1.6797-2.8545c-0.1445-0.1455-0.293-0.2988-0.4473-0.4609c-0.1523-0.1611-0.3125-0.3291-0.4766-0.5029h-0.0762
	H57.604h0.0781h0.0762c-1.7871-1.9033-4.123-4.6406-6.2656-7.9277c-2.1445-3.2881-4.1035-7.127-5.127-11.2363
	c0,0-0.3594-1.0762-0.3984-2.585c-0.0488-1.5049,0.2227-3.4434,1.457-5.165c1.2363-1.7227,7.4824-5.168,12.5918-10.8984
	c5.1113-5.7314,9.0918-13.7422,5.7891-24.6055c0,0-1.2656-2.6553-0.793-6.3037c0.4707-3.6475,2.6816-8.29,9.6328-12.2607
	c0,0,2.877-1.6523,7.2012-2.5c4.3281-0.8506,10.1035-0.8984,15.8945,2.3096c4.4336,2.501,6.7539,3.6748,8.793,4.8135
	c2.041,1.1387,3.8047,2.2412,7.127,4.6025l-0.0137-2.7539L113.6294,25.8232 M45.186,68.4189
	c-0.5938-4.8818,0.2344-9.5234,1.207-12.9443c0.9727-3.418,2.0898-5.6201,2.0898-5.6201s1.291-2.3916,3.0117-5.2646
	c1.7227-2.8691,3.8711-6.2188,5.5938-8.1338l-0.0527,0.1436l-0.0566,0.1426c0.2734-0.0576,3.8105,5.0713,4.0371,11.6084
	C61.2407,54.8906,58.1606,62.8369,45.186,68.4189z"/>
<path fill="#0A151F" d="M185.9868,85.6924c0-1.8623,0.9336-3.5498,2.4355-4.7705c1.5078-1.2217,3.584-1.9775,5.8809-1.9775
	c0.7559,0,1.4844,0.0908,2.1855,0.2471l0.1152-1.6826l0.1152-1.7246l-1.3457-0.2373l-1.3438-0.2393
	c-0.1641-0.0889-0.3242-0.1768-0.4805-0.2646c-1.1074-0.3428-2.1055-0.8643-2.9297-1.5322
	c-1.502-1.2227-2.4316-2.9082-2.4316-4.7734c0-1.8633,0.9297-3.5508,2.4316-4.7705c1.5078-1.2246,3.584-1.9766,5.8809-1.9766
	c0.1348,0,0.2637,0.0107,0.3984,0.0146l-0.123-0.8604l-0.1641-1.166c-0.4824,0.0703-0.9805,0.1143-1.4883,0.1143
	c-2.2949,0-4.3711-0.7559-5.875-1.9785c-0.8145-0.6611-1.4551-1.4648-1.8789-2.3545c-0.5527-0.875-0.6816-1.7471-0.5449-2.5752
	c0.0508-1.7988,0.9648-3.4277,2.4238-4.6143c0.9688-0.7891,2.1816-1.3789,3.5391-1.7002l-0.3379-0.9385l-0.3887-1.0947
	c-1.1406,0.4756-2.4316,0.7539-3.8047,0.7539c-2.2949,0-4.373-0.7539-5.877-1.9785c-1.5059-1.2197-2.4336-2.9092-2.4336-4.7715
	c0-1.8643,0.9277-3.5508,2.4336-4.7725c0.6426-0.5215,1.3926-0.9512,2.2168-1.2803l0.1934-0.1592l-1.2266-1.5322l-0.957-1.1924
	c-1.4004,0.8789-3.1563,1.4063-5.0664,1.4063c-2.2949,0-4.3711-0.7568-5.875-1.9766c-1.5059-1.2227-2.4355-2.9082-2.4355-4.7725
	c0-1.3438,0.4883-2.5928,1.3223-3.6436c0.0547-0.1563,0.0898-0.25,0.0898-0.25l0.5859-0.7188l0.584-0.7178l-1.4609-1.2441
	l-1.1855-1.0098c-0.1836,0.1865-0.375,0.3623-0.584,0.5322c-1.502,1.2207-3.5801,1.9766-5.877,1.9766
	c-1.5,0-2.9043-0.3281-4.1191-0.8926c-1.5938-0.5303-2.5742-1.5156-3.1719-2.6172c-0.0039-0.002-0.0039-0.0068-0.0059-0.0107
	c-0.6465-0.96-1.0156-2.0576-1.0156-3.2295c0-0.4375,0.0586-0.8633,0.1563-1.2754c0.0293-0.4619,0.0762-0.7451,0.0762-0.7451
	l0.4297-0.6182c0.1367-0.2568,0.293-0.5039,0.4648-0.7402l-2.1797-0.9854l-1.4648-0.6631c-0.4238,0.8545-1.0508,1.627-1.8379,2.2695
	c-1.5078,1.2227-3.582,1.9775-5.8789,1.9775c-2.293,0-4.3691-0.7549-5.873-1.9775c-1.5078-1.2207-2.4395-2.9082-2.4395-4.7725
	c0-0.8975,0.2246-1.7539,0.6133-2.5381c-0.7012-0.1895-1.8184-0.4277-2.7656-0.6123c-0.4316-0.0889-0.8242-0.1611-1.1367-0.2217
	c-0.2949,1.4033-1.1172,2.6582-2.3008,3.624c-1.5059,1.2227-3.582,1.9775-5.8809,1.9775c-2.293,0-4.3691-0.7549-5.875-1.9775
	c-1.4746-1.1992-2.3691-3.6006-2.4043-5.4229c-0.502,0.9414-1.1826,3.8828-1.4346,5.8906c-0.2676,2.1035,0.6401,2.0498-0.8213,5.792
	c-0.0137,0,0.7324,0.3506,0.7227,0.3506c7.8848,0.1953,12.8418,0.9336,15.8281,1.6221c2.9863,0.6914,4.0039,1.3311,4.0039,1.3311
	c-3.0195,0.875-6.9375,2.7041-10.7344,4.748c-3.7969,2.041-7.4688,4.2988-9.998,6.0303l-0.251,2.9385l0.251,2.5898
	c3.2988-2.3613,5.0293-3.4639,7.0273-4.6025c2-1.1387,4.2754-2.3125,8.6777-4.8135c5.748-3.208,11.4785-3.1602,15.7715-2.3096
	c4.293,0.8477,7.1445,2.5,7.1445,2.5c6.9023,3.9707,9.0938,8.6133,9.5605,12.2607c0.4668,3.6484-0.7852,6.3037-0.7852,6.3037
	c-3.2773,10.8633,0.668,18.874,5.7441,24.6055c5.0703,5.7305,11.2656,9.1758,12.4941,10.8984
	c1.2285,1.7217,1.4883,3.6602,1.4453,5.165c-0.041,1.5088-0.3926,2.585-0.3926,2.585c-1.0215,4.1094-2.9609,7.9482-5.0898,11.2363
	c-2.1289,3.2871-4.4434,6.0244-6.2168,7.9277h0.0781h0.0723h-0.0723h-0.0781c-0.1641,0.1738-0.3203,0.3418-0.4746,0.5029
	c-0.1543,0.1621-0.3027,0.3154-0.4453,0.4609l1.6719,2.8545l1.4004,2.3984c1.2246-0.5713,2.6348-0.9053,4.1523-0.9053
	c2.1191,0,4.0508,0.6514,5.5195,1.7158l1-1.1211l1.0781-1.2002c-0.6074-0.291-1.168-0.6367-1.6641-1.0371
	c-1.5039-1.2217-2.4336-2.9092-2.4336-4.7715c0-1.8652,0.9297-3.5527,2.4336-4.7744c1.5059-1.2188,3.5801-1.9746,5.8789-1.9746
	c1.2715,0,2.4668,0.2363,3.543,0.6465c0.2031-0.3252,0.5879-1.1348,0.9453-1.8994c0.3984-0.8506,0.7461-1.6377,0.7461-1.6377
	l-0.4766-0.1846c-1.3379-0.3271-2.5352-0.9131-3.4941-1.6904C186.9204,89.2451,185.9868,87.5557,185.9868,85.6924 M181.5161,68.4189
	c-12.873-5.582-15.9355-13.5283-15.709-20.0684c0.2285-6.5371,3.7344-11.666,4.0059-11.6084l-0.0527-0.1426l-0.0508-0.1436
	c1.7051,1.915,3.8379,5.2646,5.5469,8.1338c1.707,2.873,2.9863,5.2646,2.9863,5.2646s1.1113,2.2021,2.0781,5.6201
	C181.2837,58.8955,182.1001,63.5371,181.5161,68.4189z"/>
<path fill="#0D1720" stroke="#EB8223" d="M228.4644,34.1133H0.5v87.25l70.4028,0.375c7.4443,4.25,32.1943,7.125,44.4443,6.875
	c15.5,0,36.25-2.625,44.4443-6.875l68.6729-0.375V34.1133z"/>
<path fill="#00AEEF" stroke="#FDB717" stroke-width="1.0074" d="M14.979,71.7002c-1.9375-1.623-3.3887-3.042-4.3555-4.2588
	c-1.0195-1.2422-1.8867-2.9619-2.6074-5.1582c-0.7188-2.1699-1.0781-4.5713-1.0781-7.2051c0-4.7295,0.8555-8.4248,2.5664-11.083
	c1.6953-2.6582,3.7871-3.9873,6.2715-3.9873s4.5879,1.252,6.3125,3.7549v-3.168h6.416v14.5469h-6.334
	c-0.7734-3.9883-2.1445-5.9824-4.1133-5.9824c-1.3848,0-2.0762,1.0645-2.0762,3.1914c0,1.0264,0.1953,1.7979,0.5898,2.3105
	c0.3789,0.5391,1.6074,1.7256,3.6855,3.5586c2.7832,2.4951,4.6426,4.3164,5.5801,5.4639c0.4746,0.5635,0.9609,1.3516,1.4551,2.3672
	c0.4961,1.0146,0.9082,2.0596,1.2344,3.1357c0.7461,2.3975,1.1191,4.9902,1.1191,7.7764c0,4.2803-0.8828,7.8984-2.6465,10.8564
	c-1.7656,3.0088-3.9922,4.5117-6.6797,4.5117c-2.5,0-4.7598-1.3291-6.7832-3.9893v3.2852h-6.375V75.3203h6.375
	c0.7598,4.3809,2.1934,6.5693,4.2988,6.5693c1.5195,0,2.2793-1.0957,2.2793-3.292c0-1.1455-0.2637-2.0967-0.793-2.8525
	c-0.5723-0.8281-1.7734-1.9756-3.6055-3.4385C15.4634,72.1016,15.2173,71.8994,14.979,71.7002"/>
<polygon fill="#00AEEF" stroke="#FDB717" stroke-width="1.0074" points="48.6978,91.627 32.5239,91.627 32.5239,79.4102 
	35.1333,79.4102 35.1333,52.8125 32.5239,52.8125 32.5239,40.5947 48.6978,40.5947 48.6978,52.8125 46.106,52.8125 46.106,79.4102 
	48.6978,79.4102 "/>
<path fill="#00AEEF" stroke="#FDB717" stroke-width="1.0074" d="M58.2329,91.627h-6.375V75.3203h6.375
	c0.7598,4.3809,2.1934,6.5693,4.2988,6.5693c1.5195,0,2.2773-1.0957,2.2773-3.292c0-1.1455-0.2617-2.0967-0.793-2.8525
	c-0.5703-0.8281-1.7715-1.9756-3.6055-3.4385c-2.3066-1.877-4.0039-3.499-5.0898-4.8652c-1.0195-1.2422-1.8887-2.9619-2.6074-5.1582
	c-0.7188-2.1699-1.0781-4.5713-1.0781-7.2051c0-4.7295,0.8535-8.4248,2.5645-11.083c1.6973-2.6582,3.7891-3.9873,6.2734-3.9873
	s4.5879,1.252,6.3125,3.7549v-3.168h6.4141v14.5469h-6.332c-0.7734-3.9883-2.1465-5.9824-4.1133-5.9824
	c-1.3848,0-2.0781,1.0645-2.0781,3.1914c0,1.0264,0.1973,1.7979,0.5918,2.3105c0.3789,0.5391,1.6074,1.7256,3.6855,3.5586
	c2.7813,2.4951,4.6406,4.3164,5.5781,5.4639c0.4766,0.5635,0.9609,1.3516,1.457,2.3672c0.4961,1.0146,0.9063,2.0596,1.2324,3.1357
	c0.7461,2.3975,1.1211,4.9902,1.1211,7.7764c0,4.2803-0.8848,7.8984-2.6484,10.8564c-1.7656,3.0088-3.9922,4.5117-6.6797,4.5117
	c-2.498,0-4.7598-1.3291-6.7813-3.9893V91.627z"/>
<path fill="#00AEEF" stroke="#FDB717" stroke-width="1.0074" d="M93.0532,91.627H77.6626V79.4102h2.1641V52.8125h-2.2266V40.5947
	h15.4531v12.2178h-2.2461v26.5977h2.2461V91.627 M110.7095,91.627H96.0122V79.4102h1.3672l-6.2266-14.5273l7.2285-12.0703h-2.3066
	V40.5947h13.9824v12.2178h-2.2051l-5.7969,9.6855l7.248,16.9121h1.4063V91.627z"/>
<polygon fill="#00AEEF" stroke="#FDB717" stroke-width="1.0074" points="129.8306,91.627 113.6567,91.627 113.6567,79.4102 
	116.2681,79.4102 116.2681,52.8125 113.6567,52.8125 113.6567,40.5947 129.8306,40.5947 129.8306,52.8125 127.2407,52.8125 
	127.2407,79.4102 129.8306,79.4102 "/>
<polygon fill="#00AEEF" stroke="#FDB717" stroke-width="1.0074" points="154.0747,91.627 138.5708,91.627 138.5708,79.4102 
	140.8579,79.4102 140.8579,71.3018 133.6938,52.8125 131.7544,52.8125 131.7544,40.5947 146.5884,40.5947 146.5884,52.8135 
	144.895,52.8135 147.9146,63.2363 151.5649,52.8135 149.8306,52.8135 149.8306,40.5947 160.7485,40.5947 160.7485,52.8125 
	158.9731,52.8125 151.8306,71.3018 151.8306,79.4102 154.0747,79.4102 "/>
<path fill="#00AEEF" stroke="#FDB717" stroke-width="1.0074" d="M160.2329,66.0342c0-4.2471,0.5762-8.3613,1.7344-12.3418
	c1.1445-3.9541,2.9199-7.2871,5.3281-9.998c0.8574-0.9531,1.7383-1.7119,2.6445-2.2744c0.9043-0.5635,1.8887-0.9971,2.9492-1.3037
	c1.0625-0.3057,2.1777-0.46,3.3496-0.46c5.0898,0,9.0273,2.6797,11.8184,8.0381c1.3887,2.6377,2.4355,5.4951,3.1445,8.5713
	c0.707,3.0762,1.0625,6.335,1.0625,9.7773c0,7.1055-1.4434,13.2822-4.3301,18.5303c-2.8848,5.25-6.7832,7.875-11.6953,7.875
	c-4.752,0-8.6035-2.4707-11.5566-7.415C161.7153,80.1279,160.2329,73.7949,160.2329,66.0342 M172.563,66.0342
	c0,5.6563,0.3047,9.4727,0.918,11.4492c0.584,2,1.5059,2.999,2.7578,2.999c1.2363,0,2.1621-0.9629,2.7754-2.8896
	c0.6113-1.9502,0.9199-5.8027,0.9199-11.5586c0-5.584-0.3008-9.3896-0.8984-11.4131c-0.5879-1.998-1.5195-2.999-2.7969-2.999
	c-1.2246,0-2.1445,0.9648-2.7578,2.8896C172.8677,56.4395,172.563,60.2803,172.563,66.0342z"/>
<path fill="#00AEEF" stroke="#FDB717" stroke-width="1.0074" d="M196.3892,52.7959h-2.1836V40.5947h14.5293v12.2012h-1.3477V69.999
	c0,4.1094,0.2188,6.9082,0.6543,8.3984c0.4336,1.4688,1.2168,2.2021,2.3477,2.2021c0.9355,0,1.6172-0.623,2.0391-1.8721
	c0.4219-1.2207,0.6328-3.7285,0.6328-7.5186V52.7959h-1.4277V40.5947h10.6719v12.2012h-2.2441v18.5039
	c0,4.7266-0.3809,8.5918-1.1426,11.6016c-0.7637,2.9883-2.0273,5.3252-3.7969,7.0137c-1.7676,1.6904-3.9453,2.5332-6.5293,2.5332
	c-2.082,0-3.9238-0.4551-5.5293-1.3623c-1.6328-0.8828-2.9258-2.2324-3.877-4.0469c-0.9531-1.7705-1.6543-3.917-2.1035-6.4395
	c-0.4609-2.4746-0.6934-6.2764-0.6934-11.4014V52.7959z"/>
<path fill="#0D7EC3" d="M14.979,71.6699c-1.9375-1.6221-3.3887-3.042-4.3555-4.2588c-1.0195-1.2422-1.8867-2.9619-2.6074-5.1582
	C7.2974,60.083,6.938,57.6816,6.938,55.0479c0-4.7295,0.8555-8.4248,2.5664-11.083c1.6953-2.6582,3.7871-3.9873,6.2715-3.9873
	s4.5879,1.252,6.3125,3.7549v-3.168h6.416v14.5469h-6.334c-0.7734-3.9883-2.1445-5.9824-4.1133-5.9824
	c-1.3848,0-2.0762,1.0645-2.0762,3.1914c0,1.0264,0.1953,1.7979,0.5898,2.3105c0.3789,0.5391,1.6074,1.7256,3.6855,3.5586
	c2.7832,2.4951,4.6426,4.3164,5.5801,5.4639c0.4746,0.5635,0.9609,1.3516,1.4551,2.3672c0.4961,1.0146,0.9082,2.0596,1.2344,3.1357
	c0.7461,2.3975,1.1191,4.9902,1.1191,7.7764c0,4.2803-0.8828,7.8984-2.6465,10.8564c-1.7656,3.0088-3.9922,4.5117-6.6797,4.5117
	c-2.5,0-4.7598-1.3291-6.7832-3.9893v3.2852h-6.375V75.29h6.375c0.7598,4.3809,2.1934,6.5693,4.2988,6.5693
	c1.5195,0,2.2793-1.0957,2.2793-3.292c0-1.1455-0.2637-2.0967-0.793-2.8525c-0.5723-0.8281-1.7734-1.9756-3.6055-3.4385
	C15.4634,72.0713,15.2173,71.8691,14.979,71.6699"/>
<polygon fill="#0D7EC3" points="48.7837,91.5967 32.6079,91.5967 32.6079,79.3799 35.2192,79.3799 35.2192,52.7822 32.6079,52.7822 
	32.6079,40.5645 48.7837,40.5645 48.7837,52.7822 46.1919,52.7822 46.1919,79.3799 48.7837,79.3799 "/>
<path fill="#0D7EC3" d="M58.3032,91.5967h-6.375V75.29h6.375c0.7578,4.3809,2.1914,6.5693,4.2969,6.5693
	c1.5195,0,2.2793-1.0957,2.2793-3.292c0-1.1455-0.2637-2.0967-0.793-2.8525c-0.5703-0.8281-1.7715-1.9756-3.6055-3.4385
	c-2.3086-1.877-4.0059-3.499-5.0918-4.8652c-1.0176-1.2422-1.8867-2.9619-2.6055-5.1582c-0.7207-2.1699-1.0781-4.5713-1.0781-7.2051
	c0-4.7295,0.8535-8.4248,2.5645-11.083c1.6973-2.6582,3.7871-3.9873,6.2715-3.9873s4.5898,1.252,6.3145,3.7549v-3.168H73.27v14.5469
	h-6.334c-0.7734-3.9883-2.1445-5.9824-4.1113-5.9824c-1.3867,0-2.0781,1.0645-2.0781,3.1914c0,1.0264,0.1953,1.7979,0.5898,2.3105
	c0.3789,0.5391,1.6074,1.7256,3.6855,3.5586c2.7832,2.4951,4.6426,4.3164,5.5781,5.4639c0.4766,0.5635,0.9629,1.3516,1.459,2.3672
	c0.4941,1.0146,0.9043,2.0596,1.2324,3.1357c0.7461,2.3975,1.1191,4.9902,1.1191,7.7764c0,4.2803-0.8828,7.8984-2.6484,10.8564
	c-1.7637,3.0088-3.9922,4.5117-6.6797,4.5117c-2.498,0-4.7578-1.3291-6.7793-3.9893V91.5967z"/>
<path fill="#0D7EC3" d="M93.1548,91.5967H77.7642V79.3799h2.1641V52.7822h-2.2266V40.5645h15.4531v12.2178h-2.2461v26.5977h2.2461
	V91.5967 M110.811,91.5967H96.1138V79.3799h1.3672l-6.2266-14.5273l7.2285-12.0703h-2.3066V40.5645h13.9824v12.2178h-2.2051
	l-5.7969,9.6855l7.248,16.9121h1.4063V91.5967z"/>
<polygon fill="#0D7EC3" points="129.9165,91.5967 113.7427,91.5967 113.7427,79.3799 116.354,79.3799 116.354,52.7822 
	113.7427,52.7822 113.7427,40.5645 129.9165,40.5645 129.9165,52.7822 127.3267,52.7822 127.3267,79.3799 129.9165,79.3799 "/>
<polygon fill="#0D7EC3" points="154.1958,91.5967 138.6919,91.5967 138.6919,79.3799 140.979,79.3799 140.979,71.2715 
	133.8149,52.7822 131.8755,52.7822 131.8755,40.5645 146.7095,40.5645 146.7095,52.7832 145.0161,52.7832 148.0356,63.2061 
	151.686,52.7832 149.9517,52.7832 149.9517,40.5645 160.8696,40.5645 160.8696,52.7822 159.0942,52.7822 151.9517,71.2715 
	151.9517,79.3799 154.1958,79.3799 "/>
<path fill="#0D7EC3" d="M160.3169,66.0039c0-4.2471,0.5781-8.3613,1.7363-12.3418c1.1426-3.9541,2.918-7.2871,5.3262-9.998
	c0.8594-0.9531,1.7383-1.7119,2.6445-2.2744c0.9063-0.5635,1.8887-0.9971,2.9492-1.3037c1.0625-0.3057,2.1777-0.46,3.3496-0.46
	c5.0898,0,9.0293,2.6797,11.8203,8.0381c1.3867,2.6377,2.4355,5.4951,3.1426,8.5713s1.0625,6.335,1.0625,9.7773
	c0,7.1055-1.4414,13.2822-4.3281,18.5303c-2.8867,5.25-6.7852,7.875-11.6973,7.875c-4.75,0-8.6016-2.4707-11.5547-7.415
	C161.8013,80.0977,160.3169,73.7646,160.3169,66.0039 M172.6489,66.0039c0,5.6563,0.3047,9.4727,0.916,11.4492
	c0.5859,2,1.5059,2.999,2.7578,2.999c1.2363,0,2.1641-0.9629,2.7754-2.8896c0.6133-1.9502,0.9199-5.8027,0.9199-11.5586
	c0-5.584-0.2988-9.3896-0.8984-11.4131c-0.5859-1.998-1.5176-2.999-2.7969-2.999c-1.2246,0-2.1445,0.9648-2.7578,2.8896
	C172.9536,56.4092,172.6489,60.25,172.6489,66.0039z"/>
<path fill="#0D7EC3" d="M196.3892,52.7656h-2.1836V40.5645h14.5293v12.2012h-1.3477v17.2031c0,4.1094,0.2188,6.9082,0.6543,8.3984
	c0.4336,1.4688,1.2168,2.2021,2.3477,2.2021c0.9355,0,1.6172-0.623,2.0391-1.8721c0.4219-1.2207,0.6328-3.7285,0.6328-7.5186
	V52.7656h-1.4277V40.5645h10.6719v12.2012h-2.2441v18.5039c0,4.7266-0.3809,8.5918-1.1426,11.6016
	c-0.7637,2.9883-2.0273,5.3252-3.7969,7.0137c-1.7676,1.6904-3.9453,2.5332-6.5293,2.5332c-2.082,0-3.9238-0.4551-5.5293-1.3623
	c-1.6328-0.8828-2.9258-2.2324-3.877-4.0469c-0.9531-1.7705-1.6543-3.917-2.1035-6.4395
	c-0.4609-2.4746-0.6934-6.2764-0.6934-11.4014V52.7656z"/>
<path fill="#8EA449" d="M27.4556,65.9561c-0.501-1.0293-0.9492-1.6631-1.4297-2.2344c-0.0957-0.1201-0.4619-0.4023-0.5801-0.5352
	c-3.8516,2.292-7.9863,3.9326-11.4219,6.6367c-0.1709,0.1328-0.4316,0.5078-0.5977,0.6455c0.4512,0.4092,1.043,0.6797,1.5645,1.1172
	c0.2402,0.2021,0.5049,0.4629,0.7598,0.6709c1.9121,1.5293,2.8809,2.584,3.5293,3.5293c0.5352,0.7656,0.8818,1.543,0.8818,2.7041
	c0,2.2266-0.7676,3.3369-2.3037,3.3369c-2.1289,0-3.5742-2.2178-4.3438-6.6602H7.0718v16.5322h6.4424v-3.3311
	c2.0449,2.6973,4.3301,4.0449,6.8545,4.0449c2.7158,0,4.9678-1.5234,6.751-4.5742c1.7842-2.998,2.6758-6.666,2.6758-11.0059
	c0-2.8242-0.3779-5.4531-1.1309-7.8838C28.3345,67.8584,27.9565,66.9844,27.4556,65.9561z"/>
<path fill="#8EA449" d="M35.2456,58.6484l-0.1396,20.793h-2.6309v12.2168h16.3086V79.4414h-2.6113V54.3682
	c-3.5088,1.5039-7.8301,2.9004-11.3398,4.6143c3.5098-1.7139,7.8311-3.1104,11.3398-4.6143"/>
<path fill="#8EA449" d="M51.7954,52.1797c-0.002,0.7676-0.1563,1.6406-0.1094,2.5625c-0.0332,2.2393,0.1172,4.8564,1.1309,7.5723
	c0.7188,2.1963,1.5859,3.916,2.6055,5.1582c1.084,1.3662,2.7813,2.9883,5.0898,4.8652c1.834,1.4629,3.0352,2.6104,3.6055,3.4385
	c0.5293,0.7559,0.793,1.707,0.793,2.8525c0,2.1963-0.7598,3.292-2.2793,3.292c-2.1055,0-3.5371-2.1885-4.2969-6.5693h-6.375v16.3066
	h6.375V88.373c2.0215,2.6602,4.2832,3.9893,6.7813,3.9893c2.6875,0,4.9141-1.5029,6.6816-4.5117
	c1.7637-2.958,2.6465-6.5762,2.6465-10.8564c0-2.7861-0.375-5.3789-1.1191-7.7764c-0.3262-1.0762-0.7363-2.1211-1.2324-3.1357
	c-0.4961-1.0156-0.9805-1.8037-1.457-2.3672c-0.9395-1.1475-2.7988-2.9688-5.582-5.4639c-1.873-1.6543-3.5117-3.3711-4.0918-4.0869
	c-0.0625-0.0771-0.1133-0.1436-0.1504-0.1963c-0.085-0.1113-1.1074-0.8027-2.3369-1.6621
	c-0.7813-0.5469-1.6465-1.1602-2.4072-1.7354"/>
<path fill="#8EA449" d="M93.1235,91.6582H77.7329V79.4414h2.1621V60.5215l3.8711,0.5977l7.1133-3.0684v21.3906h2.2441V91.6582
	 M110.7798,91.6582H96.0825V79.4414h1.3672l-6.2246-14.5273l7.2266-12.0703l5.5352-2.6904l3.9355,2.6904l-5.7969,9.6855
	l7.2461,16.9121h1.4082V91.6582z"/>
<polygon fill="#8EA449" points="129.9165,91.6582 113.7446,91.6582 113.7446,79.4414 116.354,79.4414 116.354,52.8438 
	127.2583,60.7373 127.3267,79.4414 129.9165,79.4414 "/>
<polygon fill="#8EA449" points="154.1235,91.6582 138.6196,91.6582 138.6196,79.4414 140.9067,79.4414 140.9067,71.333 
	153.6196,66.8252 151.8794,71.333 151.8794,79.4414 154.1235,79.4414 "/>
<path fill="#8EA449" d="M160.3169,66.0654c0-0.9209,0.0273-1.835,0.082-2.7432c0.0977-1.625,0.2813-3.2295,0.5527-4.8145
	c0.2754-1.6152,26.8203-11.4971,27.1934-10.7822c1.3867,2.6377,2.4355,5.4951,3.1426,8.5713
	c0.4805,2.0859,0.7949,4.2568,0.9492,6.5117c0.0742,1.0693,0.1113,2.1582,0.1113,3.2656c0,7.1055-1.4434,13.2822-4.3281,18.5303
	c-2.8848,5.25-6.7832,7.875-11.6973,7.875c-4.75,0-8.5996-2.4707-11.5547-7.415C161.8013,80.1592,160.3169,73.8262,160.3169,66.0654
	 M173.4204,55.0674c-0.5137,2.0586-0.7715,5.7256-0.7715,10.998c0,5.6563,0.3066,9.4727,0.918,11.4492
	c0.5859,2,1.5039,2.999,2.7559,2.999c1.2383,0,2.1641-0.9629,2.7773-2.8896c0.6133-1.9502,0.918-5.8027,0.918-11.5586
	c0-5.584-0.2988-9.3896-0.8984-11.4131c-0.1465-0.499-0.3164-0.9365-0.5059-1.3115c-0.5684-1.125-1.334-1.6875-2.291-1.6875
	c-1.2246,0-2.1426,0.9648-2.7559,2.8896C173.5161,54.7041,173.4673,54.8789,173.4204,55.0674z"/>
<path fill="#8EA449" d="M196.4009,52.8594h-2.1836v-6.7568l14.5273,5.25v1.5068h-1.3457v17.2031
	c0,4.1094,0.2168,6.9082,0.6523,8.3984c0.4375,1.4688,1.2168,2.2021,2.3477,2.2021c0.9395,0,1.6191-0.623,2.041-1.8721
	c0.4199-1.2207,0.6328-3.7285,0.6328-7.5186V52.8594l3.9258,3.6602l3.0742-0.418v15.2617c0,4.7266-0.3828,8.5918-1.1445,11.6016
	c-0.7617,2.9883-2.0273,5.3252-3.7949,7.0137c-1.7695,1.6904-3.9453,2.5332-6.5313,2.5332c-2.0801,0-3.9238-0.4551-5.5293-1.3623
	c-1.6328-0.8828-2.9258-2.2324-3.877-4.0469c-0.9512-1.7705-1.6543-3.917-2.1016-6.4395
	c-0.4629-2.4746-0.6934-6.2764-0.6934-11.4014V52.8594z"/>
<line fill="none" stroke="#F99B1C" stroke-width="1.0659" x1="174.4321" y1="98.9707" x2="222.4341" y2="98.9707"/>
<line fill="none" stroke="#F99B1C" stroke-width="1.0659" x1="174.4321" y1="114.7432" x2="222.4341" y2="114.7432"/>
<path fill="#FDB717" d="M180.4771,102.0957c0.9492,0,1.7168,0.4131,2.3027,1.2383c0.5879,0.8252,0.8809,1.9844,0.8809,3.4785
	c0,1.3408-0.3027,2.4141-0.9082,3.2178c-0.6055,0.8047-1.377,1.2061-2.3105,1.2061c-0.9531,0-1.7285-0.3965-2.3242-1.1904
	c-0.5957-0.793-0.8945-1.8926-0.8945-3.2969c0-1.4307,0.2891-2.5635,0.8672-3.3994
	C178.6665,102.5137,179.4634,102.0957,180.4771,102.0957z M180.5259,102.877c-0.7891,0-1.3691,0.3623-1.7422,1.0869
	s-0.5605,1.6729-0.5605,2.8457c0,1.1094,0.1953,1.9941,0.584,2.6543c0.3906,0.6611,0.9297,0.9912,1.6211,0.9912
	c0.6992,0,1.2461-0.3398,1.6406-1.0195s0.5918-1.6045,0.5918-2.7725c0-1.2705-0.207-2.2188-0.623-2.8457
	S181.1177,102.877,180.5259,102.877z"/>
<path fill="#FDB717" d="M185.272,102.2363h2.373c0.8574,0,1.5449,0.1768,2.0664,0.5313c0.5195,0.3535,0.7793,0.8926,0.7793,1.6172
	c0,0.5469-0.1621,1.0205-0.4863,1.4209s-0.8301,0.7031-1.5156,0.9063c0.4727,0.1094,0.8223,0.2988,1.0488,0.5674
	s0.3984,0.6621,0.5156,1.1826l0.5781,2.6338h-1.0352l-0.3867-2.1289c-0.127-0.6777-0.3398-1.166-0.6387-1.4668
	s-0.7305-0.4512-1.2949-0.4512h-1.0664v4.0469h-0.9375V102.2363z M186.2095,103.0176v3.3125h0.9824
	c0.6973,0,1.2598-0.166,1.6875-0.498c0.4297-0.332,0.6426-0.7813,0.6426-1.3486c0-0.4902-0.1523-0.8574-0.459-1.1006
	c-0.3047-0.2432-0.7637-0.3652-1.377-0.3652H186.2095z"/>
<path fill="#FDB717" d="M192.0435,102.2363h4.7813v0.75h-3.8281v3.1094h3.625v0.75h-3.625v3.5h3.8281v0.75h-4.7813V102.2363z"/>
<path fill="#FDB717" d="M202.6685,110.2461c-0.2207,0.3281-0.4727,0.5752-0.752,0.7412c-0.2813,0.166-0.5898,0.249-0.9297,0.249
	c-0.5371,0-1.043-0.2012-1.5195-0.6025c-0.4746-0.4023-0.8242-0.959-1.0449-1.6699s-0.332-1.4473-0.332-2.209
	c0-1.4092,0.3242-2.5381,0.9746-3.3867c0.6484-0.8477,1.4961-1.2725,2.5391-1.2725c0.5879,0,1.1934,0.1787,1.8145,0.5342v1.0439
	c-0.6445-0.5313-1.2578-0.7969-1.8359-0.7969c-0.7637,0-1.375,0.3555-1.834,1.0645c-0.459,0.71-0.6895,1.6719-0.6895,2.8877
	c0,0.998,0.1914,1.8525,0.5762,2.5615c0.3848,0.71,0.877,1.0645,1.4766,1.0645c0.4238,0,0.791-0.1914,1.0977-0.5742
	s0.459-0.8516,0.459-1.4082v-1.0645h-1.8125v-0.75h2.7656v4.4375h-0.6074L202.6685,110.2461z"/>
<path fill="#FDB717" d="M208.0396,102.0957c0.9473,0,1.7148,0.4131,2.3027,1.2383c0.5859,0.8252,0.8809,1.9844,0.8809,3.4785
	c0,1.3408-0.3047,2.4141-0.9102,3.2178c-0.6055,0.8047-1.375,1.2061-2.3086,1.2061c-0.9531,0-1.7285-0.3965-2.3242-1.1904
	c-0.5977-0.793-0.8945-1.8926-0.8945-3.2969c0-1.4307,0.2871-2.5635,0.8652-3.3994S207.0239,102.0957,208.0396,102.0957z
	 M208.0884,102.877c-0.7891,0-1.3711,0.3623-1.7441,1.0869s-0.5586,1.6729-0.5586,2.8457c0,1.1094,0.1934,1.9941,0.584,2.6543
	c0.3887,0.6611,0.9297,0.9912,1.6191,0.9912c0.7012,0,1.248-0.3398,1.6426-1.0195s0.5918-1.6045,0.5918-2.7725
	c0-1.2705-0.209-2.2188-0.625-2.8457C209.1841,103.1904,208.6802,102.877,208.0884,102.877z"/>
<path fill="#FDB717" d="M213.7817,102.2363l2.8789,5.9004l0.752,1.5557c-0.0527-1.5918-0.0781-2.415-0.0781-2.4707v-4.9854h0.8594
	v8.8594h-0.9688l-2.7949-5.6836c-0.0801-0.1611-0.2285-0.5039-0.4473-1.0293l-0.3359-0.7813
	c-0.0137,0.1787-0.0215,0.2822-0.0215,0.3115l0.0352,0.6855l0.0078,0.9844l-0.0215,0.3818v5.1309h-0.8594v-8.8594H213.7817z"/>
<line fill="none" stroke="#F99B1C" stroke-width="1.0659" x1="6.3774" y1="98.9707" x2="54.3774" y2="98.9707"/>
<line fill="none" stroke="#F99B1C" stroke-width="1.0659" x1="6.3774" y1="114.7432" x2="54.3774" y2="114.7432"/>
<path fill="#FDB717" d="M7.3228,109.3926c0.4463,0.3701,0.8086,0.624,1.0859,0.7617c0.2773,0.1387,0.5605,0.207,0.8486,0.207
	c0.4541,0,0.8604-0.165,1.2178-0.4951c0.3564-0.3301,0.5352-0.7598,0.5352-1.2891c0-0.3975-0.1152-0.7305-0.3477-0.9971
	c-0.2344-0.2617-0.6865-0.5205-1.3545-0.7744c-1.3232-0.5078-1.9854-1.2773-1.9854-2.3105c0-0.6641,0.2344-1.2305,0.7051-1.6982
	c0.4707-0.4668,1.0332-0.7012,1.6895-0.7012c0.5391,0,1.0957,0.2021,1.668,0.6064v1.1436
	c-0.3633-0.3408-0.6621-0.5742-0.8984-0.7012c-0.2354-0.126-0.4844-0.1895-0.7471-0.1895c-0.4385,0-0.8018,0.1523-1.0918,0.458
	c-0.29,0.3047-0.4346,0.6592-0.4346,1.0615c0,0.4063,0.1289,0.7275,0.3877,0.9629s0.7295,0.4941,1.415,0.7764
	c0.4141,0.1689,0.7461,0.3398,0.999,0.5137c0.2529,0.1729,0.4639,0.4189,0.6318,0.7363c0.1699,0.3174,0.2539,0.6797,0.2539,1.0859
	c0,0.7578-0.2598,1.3955-0.7773,1.9121c-0.5195,0.5166-1.1338,0.7744-1.8438,0.7744c-0.6191,0-1.2715-0.2432-1.957-0.7314V109.3926z
	"/>
<path fill="#FDB717" d="M15.6665,102.0957c0.8457,0,1.5293,0.4131,2.0527,1.2383c0.5225,0.8252,0.7832,1.9844,0.7832,3.4785
	c0,1.3408-0.2695,2.4141-0.8086,3.2178c-0.5391,0.8047-1.2256,1.2061-2.0586,1.2061c-0.8486,0-1.5391-0.3965-2.0703-1.1904
	c-0.5313-0.793-0.7969-1.8926-0.7969-3.2969c0-1.4307,0.2578-2.5635,0.7725-3.3994S14.7642,102.0957,15.6665,102.0957z
	 M15.7114,102.877c-0.7031,0-1.2207,0.3623-1.5527,1.0869c-0.333,0.7246-0.5,1.6729-0.5,2.8457
	c0,1.1094,0.1738,1.9941,0.5215,2.6543c0.3477,0.6611,0.8281,0.9912,1.4434,0.9912c0.623,0,1.1104-0.3398,1.4619-1.0195
	c0.3506-0.6797,0.5264-1.6045,0.5264-2.7725c0-1.2705-0.1846-2.2188-0.5547-2.8457S16.2388,102.877,15.7114,102.877z"/>
<path fill="#FDB717" d="M19.6235,102.2363h0.8594v6.374c0,0.5713,0.1328,1.0244,0.3984,1.3594
	c0.2656,0.334,0.6367,0.501,1.1133,0.501c0.4551,0,0.8203-0.1602,1.0938-0.4824c0.2734-0.3213,0.4102-0.7813,0.4102-1.3779v-6.374
	h0.8594v6.377c0,0.8008-0.2168,1.4375-0.6504,1.9121c-0.4336,0.4736-1.0117,0.7109-1.7324,0.7109
	c-0.7324,0-1.3086-0.2549-1.7256-0.7656c-0.417-0.5098-0.626-1.1904-0.626-2.042V102.2363z"/>
<path fill="#FDB717" d="M25.1646,102.2363h4.9531v0.75h-2.0625v8.1094h-0.8594v-8.1094h-2.0313V102.2363z"/>
<path fill="#FDB717" d="M31.104,102.2363h0.8594v3.8438h3.0781v-3.8438h0.8594v8.8594h-0.8594v-4.2656h-3.0781v4.2656H31.104
	V102.2363z"/>
<path fill="#FDB717" d="M37.5767,102.2363h4.2656v0.75H38.436v3.1094h3.2344v0.75H38.436v3.5h3.4063v0.75h-4.2656V102.2363z"/>
<path fill="#FDB717" d="M43.2778,102.2363h2.1172c0.7637,0,1.3779,0.1768,1.8418,0.5313c0.4648,0.3535,0.6973,0.8926,0.6973,1.6172
	c0,0.5469-0.1445,1.0205-0.4346,1.4209s-0.7412,0.7031-1.3525,0.9063c0.4219,0.1094,0.7334,0.2988,0.9355,0.5674
	c0.2031,0.2686,0.3555,0.6621,0.4609,1.1826l0.5156,2.6338h-0.9238l-0.3535-2.1279c-0.1113-0.6777-0.2988-1.167-0.5625-1.4678
	s-0.6445-0.4512-1.1426-0.4512h-0.9395v4.0469h-0.8594V102.2363z M44.1372,103.0176v3.3125h0.8701
	c0.6182,0,1.1172-0.166,1.4971-0.498s0.5703-0.7813,0.5703-1.3486c0-0.4902-0.1367-0.8574-0.4082-1.1006
	s-0.6777-0.3652-1.2207-0.3652H44.1372z"/>
<path fill="#FDB717" d="M50.0688,102.2363l2.5566,5.9004l0.6699,1.5557c-0.042-1.5918-0.0625-2.415-0.0625-2.4707v-4.9854h0.7656
	v8.8594h-0.873l-2.4795-5.6836c-0.0703-0.1611-0.2021-0.5039-0.3975-1.0293l-0.2969-0.7813
	c-0.0137,0.1787-0.0195,0.2822-0.0195,0.3115l0.0313,0.6855l0.0068,0.9844l-0.0186,0.3818v5.1309H49.186v-8.8594H50.0688z"/>
<path d="M78.5542,117.2134l-7.0811-1.4063l-7.2607-21.0303l-1.6846-0.083v-6.0371l12.2305,0.0459v6.6045l-1.9287-0.0967
	l3.3848,12.0078l3.5508-11.6602l-1.8662-0.0938v-6.75l9.1738,0.0352v7.1768l-1.6836-0.085L78.5542,117.2134z"/>
<path d="M110.5864,123.2671l-21.7188-4.2773v-7.2305l1.7676,0.2656V96.104l-1.8008-0.0898v-7.2578l21.752,0.084v11.0293
	l-5.9746-0.3926v-2.6719l-5.1719-0.2588v4.9512l4.5039,0.3594v6.7607l-4.5039-0.5371v5.2432l5.1719,0.7793v-2.6299l5.9746,0.8086
	V123.2671z"/>
<path d="M137.2339,120.3784l-21.667,3.0703v-8.25l2.0449-0.2217V97.1597l-2.0449,0.0752v-8.2832l13.0098-0.0352v7.8486
	l-2.1602,0.0771v17.1494l5.3848-0.583V108.23l5.4326-0.4678V120.3784z"/>
<path d="M138.7388,104.4106c0-2.6006,0.4648-5.1406,1.3926-7.6084c0.916-2.4297,2.3408-4.4756,4.2715-6.1279
	c0.6885-0.5742,1.3955-1.0293,2.1211-1.3662c0.7266-0.335,1.5137-0.5908,2.3662-0.7715c0.8496-0.1797,1.7461-0.2686,2.6846-0.2686
	c4.082,0,7.2412,1.4922,9.4785,4.4258c1.1133,1.4219,1.9531,2.957,2.5205,4.6104c0.5674,1.6445,0.8516,3.3945,0.8516,5.2617
	c0,3.8516-1.1572,7.3252-3.4707,10.4688c-2.3125,3.2119-5.4404,5.126-9.3799,5.6934c-3.8105,0.5488-6.8984-0.4775-9.2666-3.1279
	C139.9292,112.9077,138.7388,109.1616,138.7388,104.4106z M148.6284,103.6997c0,3.3115,0.2441,5.5215,0.7363,6.626
	c0.4697,1.1152,1.2061,1.6152,2.21,1.5029c0.9922-0.1104,1.7344-0.7422,2.2266-1.8984c0.4902-1.1621,0.7363-3.3799,0.7363-6.6563
	c0-3.1787-0.2402-5.3311-0.7197-6.4668c-0.4697-1.125-1.2178-1.6738-2.2432-1.6406c-0.9824,0.0313-1.7197,0.6162-2.21,1.7578
	C148.8726,98.0718,148.6284,100.3306,148.6284,103.6997z"/>
<path fill="#FDB717" stroke="#EA8224" d="M79.4399,117.6089l-7.0811-1.376l-7.2607-20.582l-1.6846-0.0811v-5.9082l12.2305,0.0449
	v6.4629l-1.9287-0.0947l3.3848,11.752l3.5508-11.4111l-1.8662-0.0918v-6.6064l9.1738,0.0342v7.0244l-1.6836-0.083L79.4399,117.6089z
	"/>
<path fill="#FDB717" stroke="#EA8224" d="M111.4673,113.981v7.04l-0.0166,2.7031l-21.7637-1.5977l0.0303-3.7363l0.0361-6.1191
	l1.0313,0.1514l0.7363,0.1084V96.9497l-1.8008-0.0879v-7.1035l21.752,0.083v10.7939l-5.9746-0.3848v-2.6143l-5.1719-0.2539v4.8457
	l4.5039,0.3516v6.6172l-4.5039-0.5254v5.1309l2.9082,0.4287l2.2637,0.334v-2.5742l5.9746,0.792L111.4673,113.981z"/>
<path fill="#FDB717" stroke="#EA8224" d="M138.1196,116.855l0.0313,5.167l-21.6982,1.6895v-8.0742l2.0449-0.2168V97.9829
	l-2.0449,0.0732v-8.1064l13.0098-0.0342v7.6816l-2.1602,0.0752v16.7832l5.3848-0.5703v-5.0684l5.4326-0.458V116.855z"/>
<path fill="#FDB717" stroke="#EA8224" stroke-width="1.0097" d="M139.6245,105.3892c0-2.5957,0.4648-5.1299,1.3926-7.5918
	c0.916-2.4248,2.3408-4.4668,4.2715-6.1162c0.6885-0.5723,1.3955-1.0264,2.1211-1.3633c0.7266-0.333,1.5137-0.5889,2.3662-0.7695
	c0.8496-0.1787,1.7461-0.2676,2.6846-0.2676c4.082,0,7.2412,1.4883,9.4785,4.416c1.1133,1.4189,1.9531,2.9512,2.5205,4.6006
	c0.5674,1.6416,0.8516,3.3877,0.8516,5.251c0,3.8428-1.1572,7.3096-3.4707,10.4453c-2.3125,3.2051-5.4404,5.1152-9.3799,5.6816
	c-3.8105,0.5479-6.8984-0.4766-9.2666-3.1211C140.8149,113.8677,139.6245,110.1294,139.6245,105.3892z M149.5142,104.6792
	c0,3.3047,0.2441,5.5098,0.7363,6.6113c0.4697,1.1133,1.2061,1.6123,2.21,1.501c0.9922-0.1113,1.7344-0.7412,2.2266-1.8955
	c0.4902-1.1602,0.7363-3.3721,0.7363-6.6416c0-3.1719-0.2402-5.3193-0.7197-6.4521c-0.4697-1.123-1.2178-1.6709-2.2432-1.6387
	c-0.9824,0.0322-1.7197,0.6162-2.21,1.7549C149.7583,99.063,149.5142,101.3179,149.5142,104.6792z"/>
</svg>
